<svg width="24" height="24" viewBox="0 0 24 24" fill="none" xmlns="http://www.w3.org/2000/svg">
<path d="M21.9812 8.47375L20.85 3.94625C20.7113 3.39 20.2113 3 19.6375 3H4.36375C3.79 3 3.29 3.39 3.15 3.94625L2.01875 8.47375C2.00625 8.5225 2 8.57375 2 8.625C2 10.3475 3.33125 11.75 4.96875 11.75C5.92 11.75 6.76875 11.2762 7.3125 10.5413C7.85625 11.2762 8.705 11.75 9.65625 11.75C10.6075 11.75 11.4563 11.2762 12 10.5413C12.5437 11.2762 13.3912 11.75 14.3438 11.75C15.2963 11.75 16.1438 11.2762 16.6875 10.5413C17.2312 11.2762 18.0788 11.75 19.0312 11.75C20.6688 11.75 22 10.3475 22 8.625C22 8.57375 21.9937 8.5225 21.9812 8.47375Z" fill="#2E3A44"/>
<path d="M19.0312 13C18.18 13 17.3713 12.74 16.6875 12.265C15.32 13.2163 13.3675 13.2163 12 12.265C10.6325 13.2163 8.68 13.2163 7.3125 12.265C6.62875 12.74 5.82 13 4.96875 13C4.355 13 3.77625 12.8563 3.25 12.6113V19.25C3.25 19.94 3.81 20.5 4.5 20.5H9.5V15.5H14.5V20.5H19.5C20.19 20.5 20.75 19.94 20.75 19.25V12.6113C20.2237 12.8563 19.645 13 19.0312 13Z" fill="#2E3A44"/>
</svg>
