<svg width="24" height="24" viewBox="0 0 24 24" fill="none" xmlns="http://www.w3.org/2000/svg">
<path d="M18.545 10.3723C18.4344 10.4126 18.3297 10.4679 18.2348 10.5376C17.7444 10.8985 16.8301 11.8842 16.8301 11.8842C16.8581 11.8578 16.1717 12.522 15.5422 13.1355C15.3657 13.3078 15.0689 13.1841 15.0668 12.9373V4.9872C15.0668 4.20793 14.4366 3.67036 13.6739 3.83058C13.0654 3.95845 12.7407 4.52455 12.7407 5.20143L12.746 11.2027L11.8185 11.2049V3.08335C11.8185 2.33979 11.2215 1.85166 10.5024 2.04087C10.0089 2.17057 9.7779 2.63505 9.7779 3.22068V11.216L8.85307 11.218L8.84773 4.72169C8.84773 4.07258 8.54164 3.50007 7.89283 3.48085C7.21854 3.46086 6.89384 4.0265 6.89384 4.69636L6.88422 11.2287L5.98014 11.2305V6.94887C5.98014 6.27443 5.66642 5.76494 4.98831 5.76494C4.31372 5.76494 4 6.27443 4 6.94887L4.00076 16.454C4.33905 21.3408 7.10166 22 9.98954 22C12.3821 22 14.2962 20.8132 15.3558 18.916C15.4922 18.696 15.8608 18.1162 16.298 17.4294C16.9198 16.4527 17.4841 15.5788 17.88 14.9596C18.402 14.1431 18.8799 13.5053 19.4711 12.7373C19.6356 12.5237 19.7718 12.3517 19.8368 12.2806C20.0149 12.0862 20.1322 11.8443 20.1673 11.5833V11.534C20.1673 10.5914 19.4302 10.0488 18.545 10.3723Z" fill="black"/>
</svg>
