<svg width="24" height="24" viewBox="0 0 24 24" fill="none" xmlns="http://www.w3.org/2000/svg">
<path d="M20.6608 3.33947C18.8752 1.55386 15.9697 1.55349 14.1838 3.33849L14.1842 3.33885L11.3587 6.16482L12.663 7.4688L15.4889 4.64222L15.4887 4.64197C16.5557 3.57678 18.2903 3.57739 19.3566 4.6437C20.423 5.71 20.4229 7.44544 19.3566 8.51211L15.1162 12.7522C14.5997 13.2689 13.9128 13.5534 13.1822 13.5534C12.4516 13.5534 11.7646 13.2689 11.2481 12.7522L9.94385 14.0563C10.8089 14.9213 11.959 15.3978 13.1823 15.3978C14.4057 15.3978 15.5558 14.9213 16.4205 14.0563L20.661 9.81621C22.4462 8.03023 22.4462 5.12471 20.6608 3.33947Z" fill="#2E3A44"/>
<path d="M8.5118 19.3571C7.44513 20.4232 5.70981 20.4229 4.64339 19.3565C3.57696 18.2898 3.57696 16.5541 4.64326 15.4876L8.88313 11.2477C9.9498 10.1812 11.6852 10.1812 12.7517 11.2477L14.056 9.9436C12.2702 8.15786 9.36464 8.15774 7.57903 9.9436L3.33891 14.1835C1.55367 15.9692 1.55367 18.8749 3.33904 20.6607C4.23209 21.5536 5.40487 22.0001 6.5779 22C7.75043 22 8.92322 21.5538 9.81578 20.6613L9.81602 20.6612L12.6421 17.8344L11.3378 16.5303L8.5118 19.3571Z" fill="#2E3A44"/>
</svg>
