<svg width="24" height="24" viewBox="0 0 24 24" fill="none" xmlns="http://www.w3.org/2000/svg">
<path d="M12 2C6.50742 2 2 6.50742 2 12C2 17.4926 6.50742 22 12 22C17.4926 22 22 17.4926 22 12C22 6.50742 17.4926 2 12 2ZM12 19.6562C7.79316 19.6562 4.34375 16.2068 4.34375 12C4.34375 10.3198 4.89434 8.7327 5.8159 7.47312L16.5268 18.1841C15.2672 19.1056 13.6802 19.6562 12 19.6562ZM18.1841 16.5268L7.4732 5.8159C8.73277 4.89441 10.3198 4.34375 12 4.34375C16.2068 4.34375 19.6562 7.79316 19.6562 12C19.6562 13.6802 19.1056 15.2672 18.1841 16.5268Z" fill="#FF5630"/>
</svg>
