<svg width="24" height="24" viewBox="0 0 24 24" fill="none" xmlns="http://www.w3.org/2000/svg">
<path d="M11.9609 2C11.6373 2 11.375 2.26234 11.375 2.58594V21.4141C11.375 21.7377 11.6373 22 11.9609 22C12.2845 22 12.5469 21.7377 12.5469 21.4141V2.58594C12.5469 2.26234 12.2845 2 11.9609 2Z" fill="#2E3A44"/>
<path d="M14.3047 5.0114C13.9811 5.0114 13.7188 5.27374 13.7188 5.59734V18.4026C13.7188 18.7262 13.9811 18.9885 14.3047 18.9885C14.6283 18.9885 14.8906 18.7262 14.8906 18.4026V5.59734C14.8906 5.27374 14.6283 5.0114 14.3047 5.0114Z" fill="#2E3A44"/>
<path d="M16.6484 7.68105C16.3248 7.68105 16.0625 7.94339 16.0625 8.26699V15.733C16.0625 16.0566 16.3248 16.319 16.6484 16.319C16.972 16.319 17.2344 16.0566 17.2344 15.733V8.26699C17.2344 7.94336 16.972 7.68105 16.6484 7.68105Z" fill="#2E3A44"/>
<path d="M18.9922 9.1182C18.6686 9.1182 18.4062 9.38054 18.4062 9.70414V14.2959C18.4062 14.6195 18.6686 14.8818 18.9922 14.8818C19.3158 14.8818 19.5781 14.6195 19.5781 14.2959V9.70414C19.5781 9.38054 19.3158 9.1182 18.9922 9.1182Z" fill="#2E3A44"/>
<path d="M21.3359 10.2901C21.0123 10.2901 20.75 10.5524 20.75 10.876V13.124C20.75 13.4476 21.0123 13.7099 21.3359 13.7099C21.6595 13.7099 21.9219 13.4476 21.9219 13.124V10.876C21.9219 10.5524 21.6595 10.2901 21.3359 10.2901Z" fill="#2E3A44"/>
<path d="M9.61719 5.0114C9.29359 5.0114 9.03125 5.27374 9.03125 5.59734V18.4026C9.03125 18.7262 9.29359 18.9885 9.61719 18.9885C9.94078 18.9885 10.2031 18.7262 10.2031 18.4026V5.59734C10.2031 5.27374 9.94078 5.0114 9.61719 5.0114Z" fill="#2E3A44"/>
<path d="M7.27344 7.68105C6.94984 7.68105 6.6875 7.94339 6.6875 8.26699V15.733C6.6875 16.0566 6.94984 16.319 7.27344 16.319C7.59703 16.319 7.85938 16.0566 7.85938 15.733V8.26699C7.85938 7.94336 7.59703 7.68105 7.27344 7.68105Z" fill="#2E3A44"/>
<path d="M4.92969 9.1182C4.60609 9.1182 4.34375 9.38054 4.34375 9.70414V14.2959C4.34375 14.6195 4.60609 14.8818 4.92969 14.8818C5.25328 14.8818 5.51562 14.6195 5.51562 14.2959V9.70414C5.51562 9.38054 5.25328 9.1182 4.92969 9.1182Z" fill="#2E3A44"/>
<path d="M2.58594 10.2901C2.26234 10.2901 2 10.5524 2 10.876V13.124C2 13.4476 2.26234 13.7099 2.58594 13.7099C2.90953 13.7099 3.17188 13.4476 3.17188 13.124V10.876C3.17188 10.5524 2.90953 10.2901 2.58594 10.2901Z" fill="#2E3A44"/>
</svg>
