<svg width="24" height="24" viewBox="0 0 24 24" fill="none" xmlns="http://www.w3.org/2000/svg">
<mask id="mask0_1_2871" style="mask-type:alpha" maskUnits="userSpaceOnUse" x="7" y="2" width="10" height="9">
<path fill-rule="evenodd" clip-rule="evenodd" d="M7.21091 2H16.2729V10.3057H7.21091V2Z" fill="white"/>
</mask>
<g mask="url(#mask0_1_2871)">
<path fill-rule="evenodd" clip-rule="evenodd" d="M15.5229 10.3057C15.1089 10.3057 14.7729 9.9697 14.7729 9.5557V6.5237C14.7729 4.8567 13.4179 3.4997 11.7509 3.4997C10.9399 3.5277 10.1799 3.8077 9.60591 4.3757C9.03191 4.9447 8.71391 5.7017 8.71091 6.5087V9.5557C8.71091 9.9697 8.37491 10.3057 7.96091 10.3057C7.54691 10.3057 7.21091 9.9697 7.21091 9.5557V6.5237C7.21591 5.2947 7.69091 4.1607 8.54991 3.3107C9.40791 2.4597 10.5599 2.0347 11.7539 1.9997C14.2449 1.9997 16.2729 4.0297 16.2729 6.5237V9.5557C16.2729 9.9697 15.9369 10.3057 15.5229 10.3057Z" fill="black"/>
</g>
<mask id="mask1_1_2871" style="mask-type:alpha" maskUnits="userSpaceOnUse" x="2" y="6" width="20" height="16">
<path fill-rule="evenodd" clip-rule="evenodd" d="M2 6.4746H21.4998V21.9996H2V6.4746Z" fill="white"/>
</mask>
<g mask="url(#mask1_1_2871)">
<path fill-rule="evenodd" clip-rule="evenodd" d="M7.00779 7.9746C5.07379 7.9746 3.49979 9.5466 3.49979 11.4796V16.9956C3.49979 18.9276 5.07379 20.4996 7.00779 20.4996H16.4918C18.4258 20.4996 19.9998 18.9276 19.9998 16.9956V11.4796C19.9998 9.5466 18.4258 7.9746 16.4918 7.9746H7.00779ZM16.4918 21.9996H7.00779C4.24679 21.9996 1.99979 19.7546 1.99979 16.9956V11.4796C1.99979 8.7196 4.24679 6.4746 7.00779 6.4746H16.4918C19.2538 6.4746 21.4998 8.7196 21.4998 11.4796V16.9956C21.4998 19.7546 19.2538 21.9996 16.4918 21.9996Z" fill="black"/>
</g>
</svg>
