<svg width="24" height="24" viewBox="0 0 24 24" fill="none" xmlns="http://www.w3.org/2000/svg">
<path fill-rule="evenodd" clip-rule="evenodd" d="M20.6665 9.9043H2.8425C2.4285 9.9043 2.0925 9.5683 2.0925 9.1543C2.0925 8.7403 2.4285 8.4043 2.8425 8.4043H20.6665C21.0805 8.4043 21.4165 8.7403 21.4165 9.1543C21.4165 9.5683 21.0805 9.9043 20.6665 9.9043Z" fill="black"/>
<path fill-rule="evenodd" clip-rule="evenodd" d="M16.2012 13.8096C15.7872 13.8096 15.4472 13.4736 15.4472 13.0596C15.4472 12.6456 15.7782 12.3096 16.1922 12.3096H16.2012C16.6152 12.3096 16.9512 12.6456 16.9512 13.0596C16.9512 13.4736 16.6152 13.8096 16.2012 13.8096Z" fill="black"/>
<path fill-rule="evenodd" clip-rule="evenodd" d="M11.7637 13.8096C11.3497 13.8096 11.0097 13.4736 11.0097 13.0596C11.0097 12.6456 11.3407 12.3096 11.7547 12.3096H11.7637C12.1777 12.3096 12.5137 12.6456 12.5137 13.0596C12.5137 13.4736 12.1777 13.8096 11.7637 13.8096Z" fill="black"/>
<path fill-rule="evenodd" clip-rule="evenodd" d="M7.3169 13.8096C6.9029 13.8096 6.5619 13.4736 6.5619 13.0596C6.5619 12.6456 6.8939 12.3096 7.3079 12.3096H7.3169C7.7309 12.3096 8.0669 12.6456 8.0669 13.0596C8.0669 13.4736 7.7309 13.8096 7.3169 13.8096Z" fill="black"/>
<path fill-rule="evenodd" clip-rule="evenodd" d="M16.2012 17.6963C15.7872 17.6963 15.4472 17.3603 15.4472 16.9463C15.4472 16.5323 15.7782 16.1963 16.1922 16.1963H16.2012C16.6152 16.1963 16.9512 16.5323 16.9512 16.9463C16.9512 17.3603 16.6152 17.6963 16.2012 17.6963Z" fill="black"/>
<path fill-rule="evenodd" clip-rule="evenodd" d="M11.7637 17.6963C11.3497 17.6963 11.0097 17.3603 11.0097 16.9463C11.0097 16.5323 11.3407 16.1963 11.7547 16.1963H11.7637C12.1777 16.1963 12.5137 16.5323 12.5137 16.9463C12.5137 17.3603 12.1777 17.6963 11.7637 17.6963Z" fill="black"/>
<path fill-rule="evenodd" clip-rule="evenodd" d="M7.3169 17.6963C6.9029 17.6963 6.5619 17.3603 6.5619 16.9463C6.5619 16.5323 6.8939 16.1963 7.3079 16.1963H7.3169C7.7309 16.1963 8.0669 16.5323 8.0669 16.9463C8.0669 17.3603 7.7309 17.6963 7.3169 17.6963Z" fill="black"/>
<path fill-rule="evenodd" clip-rule="evenodd" d="M15.7935 5.791C15.3795 5.791 15.0435 5.455 15.0435 5.041V1.75C15.0435 1.336 15.3795 1 15.7935 1C16.2075 1 16.5435 1.336 16.5435 1.75V5.041C16.5435 5.455 16.2075 5.791 15.7935 5.791Z" fill="black"/>
<path fill-rule="evenodd" clip-rule="evenodd" d="M7.7153 5.791C7.3013 5.791 6.9653 5.455 6.9653 5.041V1.75C6.9653 1.336 7.3013 1 7.7153 1C8.1293 1 8.4653 1.336 8.4653 1.75V5.041C8.4653 5.455 8.1293 5.791 7.7153 5.791Z" fill="black"/>
<mask id="mask0_1_2863" style="mask-type:alpha" maskUnits="userSpaceOnUse" x="2" y="2" width="20" height="21">
<path fill-rule="evenodd" clip-rule="evenodd" d="M2 2.5791H21.5V22.5H2V2.5791Z" fill="white"/>
</mask>
<g mask="url(#mask0_1_2863)">
<path fill-rule="evenodd" clip-rule="evenodd" d="M7.521 4.0791C4.928 4.0791 3.5 5.4621 3.5 7.9731V17.0221C3.5 19.5881 4.928 21.0001 7.521 21.0001H15.979C18.572 21.0001 20 19.6141 20 17.0981V7.9731C20.004 6.7381 19.672 5.7781 19.013 5.1181C18.335 4.4381 17.29 4.0791 15.988 4.0791H7.521ZM15.979 22.5001H7.521C4.116 22.5001 2 20.4011 2 17.0221V7.9731C2 4.6451 4.116 2.5791 7.521 2.5791H15.988C17.697 2.5791 19.11 3.0911 20.075 4.0581C21.012 4.9991 21.505 6.3521 21.5 7.9751V17.0981C21.5 20.4301 19.384 22.5001 15.979 22.5001Z" fill="black"/>
</g>
</svg>
