<svg width="24" height="24" viewBox="0 0 24 24" fill="none" xmlns="http://www.w3.org/2000/svg">
<path d="M20.7846 3.21957C21.0774 2.92668 21.5523 2.92668 21.8452 3.21957C22.1115 3.48584 22.1357 3.9025 21.9178 4.19611L21.8452 4.28023L15.8452 10.2802C15.5523 10.5731 15.0774 10.5731 14.7846 10.2802C14.5183 10.014 14.4941 9.5973 14.7119 9.30369L14.7846 9.21957L20.7846 3.21957Z" fill="black"/>
<path d="M14.7846 3.21957C15.0508 2.9533 15.4675 2.9291 15.7611 3.14695L15.8452 3.21957L21.8452 9.21957C22.1381 9.51246 22.1381 9.98734 21.8452 10.2802C21.5789 10.5465 21.1623 10.5707 20.8687 10.3528L20.7846 10.2802L14.7846 4.28023C14.4917 3.98734 14.4917 3.51246 14.7846 3.21957Z" fill="black"/>
<path fill-rule="evenodd" clip-rule="evenodd" d="M2.47103 3.82946L2.54358 3.75364C4.471 1.82605 5.72616 1.31512 7.06538 2.08523C7.45061 2.30676 7.81176 2.61684 8.30285 3.11562L9.80923 4.67764C10.6413 5.58554 10.8304 6.45639 10.5595 7.47626L10.5222 7.61128L10.4807 7.74553L10.2793 8.33635C9.84833 9.66133 10.0283 10.4089 11.5618 11.942C13.1565 13.5363 13.9009 13.6667 15.3281 13.168L15.5824 13.0796L15.89 12.9797L16.0246 12.9423C17.1086 12.6531 18.0243 12.8839 18.9955 13.8544L20.2092 15.0268L20.5665 15.3782C20.9626 15.7821 21.2244 16.1022 21.4178 16.4405C22.1831 17.7793 21.6716 19.0337 19.6886 21.0093L19.5 21.2005C19.2039 21.4858 18.9273 21.6903 18.5209 21.8832C17.8388 22.2071 17.0329 22.3292 16.0965 22.1989C13.789 21.878 10.8625 20.0574 7.15419 16.3501C6.85233 16.0483 6.56321 15.7523 6.28656 15.4621L5.74979 14.8892C0.719935 9.42445 0.2762 6.06749 2.33749 3.96211L2.47103 3.82946ZM7.08873 4.02253C6.76293 3.70134 6.52627 3.50554 6.31763 3.38556C5.8561 3.12017 5.35781 3.23235 4.43561 4.02608L4.14584 4.28495C4.0953 4.33161 4.0436 4.38004 3.99069 4.43029L3.65842 4.75392L3.62848 4.79133L3.40322 5.01764C2.85887 5.57365 2.60102 6.25224 2.82322 7.41928C3.18782 9.3343 4.85673 11.9321 8.21472 15.2893C11.7136 18.7873 14.3795 20.4457 16.3031 20.7132C17.4245 20.8692 17.9965 20.5976 18.5799 20L19.0247 19.5511C19.2333 19.3328 19.4115 19.1349 19.5621 18.9542L19.7674 18.6955C20.292 17.9967 20.3399 17.5774 20.1156 17.1849C20.0302 17.0355 19.906 16.8718 19.7252 16.6717L19.48 16.4126L19.3348 16.2674L17.8036 14.7888C17.2919 14.3169 16.9422 14.25 16.4113 14.3916L16.258 14.4357L15.6237 14.651C13.7836 15.2453 12.4561 14.9572 10.5012 13.0028C8.47661 10.9787 8.23916 9.62698 8.91753 7.68078L8.96105 7.55572L9.08139 7.19314L9.14054 6.96204C9.24545 6.45907 9.12568 6.10838 8.585 5.56761C8.56274 5.54535 8.53786 5.52027 8.51079 5.49281L7.08873 4.02253Z" fill="black"/>
</svg>
