<svg width="24" height="24" viewBox="0 0 24 24" fill="none" xmlns="http://www.w3.org/2000/svg">
<path fill-rule="evenodd" clip-rule="evenodd" d="M7.194 4.8315C7.59595 4.10098 8.03322 3.61263 8.68207 3.35438C9.87107 2.88159 14.1295 2.88159 15.3175 3.35447C15.966 3.61259 16.4035 4.10085 16.8057 4.83123L17.2579 5.69838C17.2683 5.71556 17.2778 5.73067 17.2863 5.74367L17.3247 5.79617C17.5308 6.02068 17.8756 6.1563 18.1032 6.1563C20.2552 6.1563 22.0002 7.9009 22.0002 10.0523V15.8473C22.0002 18.5915 19.7744 20.8173 17.0302 20.8173H6.97018C4.22529 20.8173 2.00018 18.5918 2.00018 15.8473V10.0523C2.00018 7.9009 3.74516 6.1563 5.89718 6.1563C6.12396 6.1563 6.46926 6.02048 6.67562 5.79617C6.67975 5.79168 6.68513 5.78499 6.69163 5.77614L6.74306 5.69725L7.194 4.8315ZM15.4918 5.55488C15.2419 5.10104 15.016 4.84889 14.7628 4.74813L14.6435 4.70847C13.6144 4.41758 10.0346 4.43081 9.23654 4.74813C8.98352 4.84884 8.75787 5.10086 8.5082 5.55461L8.12334 6.2987L8.02861 6.47013C7.94954 6.60166 7.87045 6.71269 7.78013 6.81109C7.27367 7.3616 6.52443 7.6563 5.89718 7.6563L5.73309 7.66183C4.48593 7.74616 3.50018 8.78452 3.50018 10.0523V15.8473C3.50018 17.7635 5.05377 19.3173 6.97018 19.3173H17.0302C18.946 19.3173 20.5002 17.7631 20.5002 15.8473V10.0523C20.5002 8.7294 19.4269 7.6563 18.1032 7.6563L17.9291 7.64902C17.3405 7.60059 16.6795 7.31147 16.2196 6.81043C16.1305 6.71333 16.0518 6.60309 15.9732 6.47267C15.962 6.45396 15.9479 6.42933 15.9318 6.40019L15.8157 6.18244L15.4918 5.55488Z" fill="black"/>
<path d="M17.5045 8.5C18.0568 8.5 18.5045 8.94772 18.5045 9.5C18.5045 10.0128 18.1184 10.4355 17.6211 10.4933L17.5045 10.5C16.9432 10.5 16.4955 10.0523 16.4955 9.5C16.4955 8.98716 16.8815 8.56449 17.3789 8.50673L17.5045 8.5Z" fill="black"/>
<path fill-rule="evenodd" clip-rule="evenodd" d="M8.07086 13.128C8.07086 10.9578 9.82965 9.19901 11.9999 9.19901C14.1701 9.19901 15.9289 10.9578 15.9289 13.128C15.9289 15.2982 14.1701 17.057 11.9999 17.057C9.82965 17.057 8.07086 15.2982 8.07086 13.128ZM14.4289 13.128C14.4289 11.7862 13.3416 10.699 11.9999 10.699C10.6581 10.699 9.57086 11.7862 9.57086 13.128C9.57086 14.4698 10.6581 15.557 11.9999 15.557C13.3416 15.557 14.4289 14.4698 14.4289 13.128Z" fill="black"/>
</svg>
