<svg width="24" height="24" viewBox="0 0 24 24" fill="none" xmlns="http://www.w3.org/2000/svg">
<mask id="mask0_1_2832" style="mask-type:alpha" maskUnits="userSpaceOnUse" x="2" y="2" width="21" height="21">
<path fill-rule="evenodd" clip-rule="evenodd" d="M2.00018 2.0002H22.0029V22.0012H2.00018V2.0002Z" fill="white"/>
</mask>
<g mask="url(#mask0_1_2832)">
<path fill-rule="evenodd" clip-rule="evenodd" d="M10.9449 20.0755C11.5349 20.6515 12.4849 20.6445 13.0709 20.0555L13.7929 19.3355C14.3529 18.7765 15.1269 18.4575 15.9159 18.4575H16.9459C17.7799 18.4575 18.4579 17.7795 18.4579 16.9465V15.9175C18.4579 15.1165 18.7679 14.3635 19.3339 13.7965L20.0539 13.0755C20.3469 12.7815 20.5039 12.4005 20.5029 11.9965C20.5019 11.5935 20.3429 11.2145 20.0559 10.9285L19.3349 10.2065C18.7679 9.6355 18.4579 8.8835 18.4579 8.0825V7.0555C18.4579 6.2215 17.7799 5.5435 16.9459 5.5435H15.9179C15.1169 5.5435 14.3639 5.2325 13.7969 4.6695L13.0749 3.9465C12.4739 3.3515 11.5149 3.3545 10.9279 3.9455L10.2089 4.6665C9.63491 5.2335 8.88191 5.5435 8.08391 5.5435H7.05491C6.22191 5.5445 5.54391 6.2225 5.54391 7.0555V8.0805C5.54391 8.8815 5.23291 9.6345 4.66891 10.2025L3.95891 10.9135C3.95191 10.9215 3.94491 10.9275 3.93791 10.9345C3.35091 11.5255 3.35391 12.4845 3.94491 13.0715L4.66691 13.7935C5.23291 14.3615 5.54391 15.1145 5.54391 15.9155V16.9465C5.54391 17.7795 6.22091 18.4575 7.05491 18.4575H8.0819C8.8839 18.4585 9.63691 18.7695 10.2039 19.3345L10.9249 20.0535C10.9309 20.0605 10.9379 20.0675 10.9449 20.0755ZM11.9989 22.0015C11.2319 22.0015 10.4649 21.7115 9.87791 21.1295C9.86991 21.1215 9.86191 21.1135 9.85391 21.1045L9.14391 20.3955C8.86091 20.1145 8.48291 19.9585 8.08091 19.9575H7.05491C5.39391 19.9575 4.04391 18.6065 4.04391 16.9465V15.9155C4.04391 15.5135 3.88691 15.1365 3.60491 14.8525L2.88591 14.1345C1.71791 12.9725 1.70391 11.0805 2.85091 9.9005C2.85991 9.8915 2.86891 9.8825 2.87791 9.8735L3.60591 9.1435C3.88691 8.8605 4.04391 8.4815 4.04391 8.0805V7.0555C4.04391 5.3955 5.39391 4.0445 7.05391 4.0435H8.08391C8.48491 4.0435 8.86291 3.8865 9.14991 3.6035L9.86491 2.8865C11.0339 1.7095 12.9449 1.7035 14.1239 2.8755L14.8549 3.6065C15.1379 3.8875 15.5159 4.0435 15.9179 4.0435H16.9459C18.6069 4.0435 19.9579 5.3945 19.9579 7.0555V8.0825C19.9579 8.4835 20.1139 8.8625 20.3969 9.1475L21.1149 9.8665C21.6839 10.4315 21.9999 11.1865 22.0029 11.9915C22.0059 12.7965 21.6949 13.5535 21.1279 14.1245L20.3949 14.8555C20.1139 15.1385 19.9579 15.5155 19.9579 15.9175V16.9465C19.9579 18.6065 18.6069 19.9575 16.9469 19.9575H15.9159C15.5199 19.9575 15.1329 20.1175 14.8519 20.3965L14.1339 21.1145C13.5469 21.7055 12.7729 22.0015 11.9989 22.0015Z" fill="black"/>
</g>
<path fill-rule="evenodd" clip-rule="evenodd" d="M9.43029 15.3215C9.23829 15.3215 9.04629 15.2485 8.90029 15.1015C8.60729 14.8085 8.60729 14.3345 8.90029 14.0415L14.0403 8.9005C14.3333 8.6075 14.8083 8.6075 15.1013 8.9005C15.3943 9.1935 15.3943 9.6685 15.1013 9.9615L9.96029 15.1015C9.81429 15.2485 9.62229 15.3215 9.43029 15.3215Z" fill="black"/>
<path fill-rule="evenodd" clip-rule="evenodd" d="M14.5035 15.4992C13.9505 15.4992 13.4985 15.0522 13.4985 14.4992C13.4985 13.9462 13.9415 13.4992 14.4945 13.4992H14.5035C15.0565 13.4992 15.5035 13.9462 15.5035 14.4992C15.5035 15.0522 15.0565 15.4992 14.5035 15.4992Z" fill="black"/>
<path fill-rule="evenodd" clip-rule="evenodd" d="M9.50354 10.4992C8.95054 10.4992 8.49854 10.0522 8.49854 9.4992C8.49854 8.9462 8.94154 8.4992 9.49454 8.4992H9.50354C10.0565 8.4992 10.5035 8.9462 10.5035 9.4992C10.5035 10.0522 10.0565 10.4992 9.50354 10.4992Z" fill="black"/>
</svg>
