<svg width="24" height="24" viewBox="0 0 24 24" fill="none" xmlns="http://www.w3.org/2000/svg">
<path fill-rule="evenodd" clip-rule="evenodd" d="M11.2114 11.2119L10.1644 14.5589L13.5104 13.5109L14.5584 10.1639L11.2114 11.2119ZM9.0204 16.4519C8.8244 16.4519 8.6324 16.3749 8.4894 16.2329C8.2924 16.0349 8.2204 15.7439 8.3044 15.4789L9.8974 10.3899C9.9704 10.1539 10.1544 9.9709 10.3884 9.8979L15.4774 8.3049C15.7444 8.2199 16.0344 8.2929 16.2324 8.4899C16.4294 8.6879 16.5014 8.9789 16.4174 9.2439L14.8254 14.3329C14.7524 14.5679 14.5674 14.7519 14.3334 14.8249L9.2444 16.4179C9.1704 16.4409 9.0944 16.4519 9.0204 16.4519Z" fill="black"/>
<mask id="mask0_1_2872" style="mask-type:alpha" maskUnits="userSpaceOnUse" x="2" y="2" width="21" height="21">
<path fill-rule="evenodd" clip-rule="evenodd" d="M2 2H22.7218V22.7217H2V2Z" fill="white"/>
</mask>
<g mask="url(#mask0_1_2872)">
<path fill-rule="evenodd" clip-rule="evenodd" d="M12.3608 3.5C7.4748 3.5 3.4998 7.476 3.4998 12.361C3.4998 17.247 7.4748 21.222 12.3608 21.222C17.2468 21.222 21.2218 17.247 21.2218 12.361C21.2218 7.476 17.2468 3.5 12.3608 3.5ZM12.3608 22.722C6.6478 22.722 1.9998 18.074 1.9998 12.361C1.9998 6.648 6.6478 2 12.3608 2C18.0738 2 22.7218 6.648 22.7218 12.361C22.7218 18.074 18.0738 22.722 12.3608 22.722Z" fill="black"/>
</g>
</svg>
