<svg width="24" height="24" viewBox="0 0 24 24" fill="none" xmlns="http://www.w3.org/2000/svg">
<path fill-rule="evenodd" clip-rule="evenodd" d="M12.001 16.5411C11.587 16.5411 11.251 16.2051 11.251 15.7911V3.7501C11.251 3.3361 11.587 3.0001 12.001 3.0001C12.415 3.0001 12.751 3.3361 12.751 3.7501V15.7911C12.751 16.2051 12.415 16.5411 12.001 16.5411Z" fill="black"/>
<path fill-rule="evenodd" clip-rule="evenodd" d="M12.001 16.5411C11.802 16.5411 11.61 16.4621 11.47 16.3201L8.55401 13.3931C8.26201 13.0991 8.26301 12.6241 8.55601 12.3321C8.85001 12.0401 9.32401 12.0401 9.61601 12.3341L12.001 14.7291L14.386 12.3341C14.678 12.0401 15.152 12.0401 15.446 12.3321C15.739 12.6241 15.74 13.0991 15.448 13.3931L12.532 16.3201C12.392 16.4621 12.2 16.5411 12.001 16.5411Z" fill="black"/>
<mask id="mask0_1_2848" style="mask-type:alpha" maskUnits="userSpaceOnUse" x="2" y="7" width="20" height="15">
<path fill-rule="evenodd" clip-rule="evenodd" d="M2.00018 7.7326H22V21.4766H2.00018V7.7326Z" fill="white"/>
</mask>
<g mask="url(#mask0_1_2848)">
<path fill-rule="evenodd" clip-rule="evenodd" d="M17.5752 21.4766H6.43518C3.99018 21.4766 2.00018 19.4876 2.00018 17.0416V12.1566C2.00018 9.7166 3.98518 7.7326 6.42618 7.7326H7.36718C7.78118 7.7326 8.11718 8.0686 8.11718 8.4826C8.11718 8.8966 7.78118 9.2326 7.36718 9.2326H6.42618C4.81218 9.2326 3.50018 10.5436 3.50018 12.1566V17.0416C3.50018 18.6606 4.81618 19.9766 6.43518 19.9766H17.5752C19.1872 19.9766 20.5002 18.6636 20.5002 17.0516V12.1676C20.5002 10.5486 19.1832 9.2326 17.5662 9.2326H16.6342C16.2202 9.2326 15.8842 8.8966 15.8842 8.4826C15.8842 8.0686 16.2202 7.7326 16.6342 7.7326H17.5662C20.0112 7.7326 22.0002 9.7226 22.0002 12.1676V17.0516C22.0002 19.4916 20.0142 21.4766 17.5752 21.4766Z" fill="black"/>
</g>
</svg>
