<svg width="24" height="24" viewBox="0 0 24 24" fill="none" xmlns="http://www.w3.org/2000/svg">
<path fill-rule="evenodd" clip-rule="evenodd" d="M16.5771 22.3687H7.75311C4.31211 22.3687 2.00011 19.9537 2.00011 16.3597V8.0457C2.00011 4.4517 4.31211 2.0367 7.75311 2.0367H11.4921C11.9061 2.0367 12.2421 2.3727 12.2421 2.7867C12.2421 3.2007 11.9061 3.5367 11.4921 3.5367H7.75311C5.16911 3.5367 3.50011 5.3067 3.50011 8.0457V16.3597C3.50011 19.0987 5.16911 20.8687 7.75311 20.8687H16.5771C19.1611 20.8687 20.8311 19.0987 20.8311 16.3597V12.3317C20.8311 11.9177 21.1671 11.5817 21.5811 11.5817C21.9951 11.5817 22.3311 11.9177 22.3311 12.3317V16.3597C22.3311 19.9537 20.0181 22.3687 16.5771 22.3687Z" fill="black"/>
<path fill-rule="evenodd" clip-rule="evenodd" d="M8.86771 15.4283H11.8447C12.2247 15.4283 12.5807 15.2813 12.8497 15.0123L20.3587 7.5033C20.6667 7.1953 20.8367 6.7853 20.8367 6.3493C20.8367 5.9123 20.6667 5.5013 20.3587 5.1933L19.1417 3.9763C18.5047 3.3413 17.4687 3.3413 16.8307 3.9763L9.35771 11.4493C9.09871 11.7083 8.95171 12.0523 8.94271 12.4173L8.86771 15.4283ZM11.8447 16.9283H8.09871C7.89671 16.9283 7.70271 16.8463 7.56171 16.7013C7.42071 16.5573 7.34371 16.3623 7.34871 16.1593L7.44271 12.3803C7.46171 11.6283 7.76471 10.9213 8.29671 10.3883H8.29771L15.7707 2.9153C16.9927 1.6953 18.9797 1.6953 20.2017 2.9153L21.4187 4.1323C22.0117 4.7243 22.3377 5.5113 22.3367 6.3493C22.3367 7.1873 22.0107 7.9733 21.4187 8.5643L13.9097 16.0733C13.3587 16.6243 12.6247 16.9283 11.8447 16.9283Z" fill="black"/>
<path fill-rule="evenodd" clip-rule="evenodd" d="M19.731 9.9166C19.539 9.9166 19.347 9.8436 19.201 9.6966L14.635 5.1306C14.342 4.8376 14.342 4.3626 14.635 4.0696C14.928 3.7766 15.402 3.7766 15.695 4.0696L20.261 8.6366C20.554 8.9296 20.554 9.4036 20.261 9.6966C20.115 9.8436 19.923 9.9166 19.731 9.9166Z" fill="black"/>
</svg>
