<svg width="24" height="24" viewBox="0 0 24 24" fill="none" xmlns="http://www.w3.org/2000/svg">
<path fill-rule="evenodd" clip-rule="evenodd" d="M8.59811 16.5596C8.18411 16.5596 7.84811 16.2236 7.84811 15.8096V12.0646C7.84811 11.6506 8.18411 11.3146 8.59811 11.3146C9.01211 11.3146 9.34811 11.6506 9.34811 12.0646V15.8096C9.34811 16.2236 9.01211 16.5596 8.59811 16.5596Z" fill="black"/>
<path fill-rule="evenodd" clip-rule="evenodd" d="M10.5088 14.6865H6.68781C6.27381 14.6865 5.93781 14.3505 5.93781 13.9365C5.93781 13.5225 6.27381 13.1865 6.68781 13.1865H10.5088C10.9228 13.1865 11.2588 13.5225 11.2588 13.9365C11.2588 14.3505 10.9228 14.6865 10.5088 14.6865Z" fill="black"/>
<path fill-rule="evenodd" clip-rule="evenodd" d="M15.1162 12.9287H15.0092C14.5952 12.9287 14.2592 12.5927 14.2592 12.1787C14.2592 11.7647 14.5952 11.4287 15.0092 11.4287H15.1162C15.5302 11.4287 15.8662 11.7647 15.8662 12.1787C15.8662 12.5927 15.5302 12.9287 15.1162 12.9287Z" fill="black"/>
<path fill-rule="evenodd" clip-rule="evenodd" d="M16.9297 16.5029H16.8227C16.4087 16.5029 16.0727 16.1669 16.0727 15.7529C16.0727 15.3389 16.4087 15.0029 16.8227 15.0029H16.9297C17.3437 15.0029 17.6797 15.3389 17.6797 15.7529C17.6797 16.1669 17.3437 16.5029 16.9297 16.5029Z" fill="black"/>
<mask id="mask0_1_2868" style="mask-type:alpha" maskUnits="userSpaceOnUse" x="7" y="1" width="7" height="6">
<path fill-rule="evenodd" clip-rule="evenodd" d="M7.07181 1H13.1118V6.5879H7.07181V1Z" fill="white"/>
</mask>
<g mask="url(#mask0_1_2868)">
<path fill-rule="evenodd" clip-rule="evenodd" d="M12.3618 6.5879C11.9478 6.5879 11.6118 6.2519 11.6118 5.8379V5.1629C11.6088 4.4389 10.9948 3.8439 10.2438 3.8409H9.18981C8.02281 3.8409 7.07181 2.9029 7.07181 1.7499C7.07181 1.3359 7.40781 0.9999 7.82181 0.9999C8.23681 0.9999 8.57181 1.3359 8.57181 1.7499C8.57181 2.0759 8.84881 2.3409 9.18981 2.3409H10.2468C11.8198 2.3459 13.1048 3.6099 13.1118 5.1589V5.8379C13.1118 6.2519 12.7758 6.5879 12.3618 6.5879Z" fill="black"/>
</g>
<mask id="mask1_1_2868" style="mask-type:alpha" maskUnits="userSpaceOnUse" x="1" y="5" width="22" height="18">
<path fill-rule="evenodd" clip-rule="evenodd" d="M1.00021 5.37325H22.5V22.5H1.00021V5.37325Z" fill="white"/>
</mask>
<g mask="url(#mask1_1_2868)">
<path fill-rule="evenodd" clip-rule="evenodd" d="M11.7012 6.873C10.2252 6.873 8.76721 6.886 7.33521 6.91C4.52821 6.91 2.50021 8.888 2.50021 11.612V16.262C2.50021 18.985 4.52821 20.963 7.32321 20.963C10.2702 21.012 13.2412 21.012 16.1652 20.963H16.1782C18.9722 20.963 21.0002 18.985 21.0002 16.262V11.612C21.0002 8.888 18.9722 6.91 16.1782 6.91C14.6742 6.886 13.1792 6.873 11.7012 6.873ZM11.7542 22.5C10.2712 22.5 8.78621 22.487 7.31021 22.463C3.65921 22.463 1.00021 19.854 1.00021 16.262V11.612C1.00021 8.019 3.65921 5.41 7.32321 5.41C10.1922 5.361 13.1802 5.361 16.1902 5.41C19.8412 5.41 22.5002 8.019 22.5002 11.612V16.262C22.5002 19.852 19.8452 22.46 16.1842 22.463C14.7162 22.487 13.2362 22.5 11.7542 22.5Z" fill="black"/>
</g>
</svg>
