<svg width="24" height="24" viewBox="0 0 24 24" fill="none" xmlns="http://www.w3.org/2000/svg">
<path fill-rule="evenodd" clip-rule="evenodd" d="M9.76082 15.6172C9.56882 15.6172 9.37682 15.5442 9.23082 15.3972C8.49282 14.6602 8.08582 13.6802 8.08582 12.6382C8.08582 10.4782 9.84182 8.7212 11.9998 8.7212C13.0378 8.7212 14.0458 9.1402 14.7648 9.8712C15.0548 10.1672 15.0518 10.6412 14.7558 10.9312C14.4608 11.2232 13.9868 11.2182 13.6958 10.9242C13.2568 10.4772 12.6388 10.2212 11.9998 10.2212C10.6688 10.2212 9.58582 11.3052 9.58582 12.6382C9.58582 13.2792 9.83682 13.8832 10.2908 14.3372C10.5838 14.6302 10.5838 15.1042 10.2918 15.3972C10.1448 15.5442 9.95282 15.6172 9.76082 15.6172Z" fill="black"/>
<path fill-rule="evenodd" clip-rule="evenodd" d="M12.5674 16.4912C12.2124 16.4912 11.8964 16.2372 11.8304 15.8752C11.7564 15.4682 12.0264 15.0772 12.4344 15.0032C13.4144 14.8252 14.1904 14.0472 14.3664 13.0662C14.4404 12.6592 14.8304 12.3912 15.2374 12.4612C15.6454 12.5342 15.9164 12.9242 15.8434 13.3322C15.5564 14.9252 14.2944 16.1892 12.7024 16.4792C12.6574 16.4872 12.6114 16.4912 12.5674 16.4912Z" fill="black"/>
<mask id="mask0_1_2860" style="mask-type:alpha" maskUnits="userSpaceOnUse" x="2" y="4" width="17" height="15">
<path fill-rule="evenodd" clip-rule="evenodd" d="M2 4.62447H18.0862V18.7226H2V4.62447Z" fill="white"/>
</mask>
<g mask="url(#mask0_1_2860)">
<path fill-rule="evenodd" clip-rule="evenodd" d="M6.65441 18.7226C6.49241 18.7226 6.32941 18.6696 6.19141 18.5626C4.50041 17.2346 3.07141 15.2876 2.06141 12.9336C1.97941 12.7436 1.97941 12.5296 2.06141 12.3406C3.08241 9.97659 4.52041 8.01959 6.22041 6.68259C9.68641 3.93959 14.3004 3.93059 17.8014 6.70259C18.1264 6.95959 18.1814 7.43159 17.9244 7.75659C17.6664 8.07959 17.1964 8.13659 16.8704 7.87859C13.9044 5.53059 10.0834 5.53859 7.14941 7.86059C5.71341 8.99059 4.48041 10.6366 3.57041 12.6386C4.47141 14.6286 5.69341 16.2646 7.11841 17.3826C7.44441 17.6386 7.50041 18.1106 7.24441 18.4356C7.09641 18.6236 6.87641 18.7226 6.65441 18.7226Z" fill="black"/>
</g>
<mask id="mask1_1_2860" style="mask-type:alpha" maskUnits="userSpaceOnUse" x="8" y="8" width="14" height="13">
<path fill-rule="evenodd" clip-rule="evenodd" d="M8.71747 8.74119H22V20.6894H8.71747V8.74119Z" fill="white"/>
</mask>
<g mask="url(#mask1_1_2860)">
<path fill-rule="evenodd" clip-rule="evenodd" d="M12.0001 20.6894C11.0631 20.6894 10.1311 20.5374 9.2311 20.2384C8.8381 20.1074 8.6251 19.6824 8.7561 19.2894C8.8871 18.8954 9.3101 18.6864 9.7051 18.8144C10.4521 19.0634 11.2241 19.1894 12.0001 19.1894C15.4281 19.1894 18.5611 16.7474 20.4301 12.6364C19.9741 11.6374 19.4431 10.7324 18.8491 9.94239C18.6001 9.61139 18.6661 9.14039 18.9971 8.89139C19.3271 8.64239 19.7981 8.71039 20.0471 9.04039C20.7711 10.0014 21.4071 11.1124 21.9381 12.3384C22.0211 12.5284 22.0211 12.7444 21.9381 12.9334C19.8421 17.7904 16.1271 20.6894 12.0001 20.6894Z" fill="black"/>
</g>
<mask id="mask2_1_2860" style="mask-type:alpha" maskUnits="userSpaceOnUse" x="3" y="4" width="18" height="18">
<path fill-rule="evenodd" clip-rule="evenodd" d="M3.36356 4.0004H20.6371V21.2734H3.36356V4.0004Z" fill="white"/>
</mask>
<g mask="url(#mask2_1_2860)">
<path fill-rule="evenodd" clip-rule="evenodd" d="M4.11331 21.2734C3.92131 21.2734 3.72931 21.2004 3.58331 21.0534C3.29031 20.7604 3.29031 20.2864 3.58331 19.9934L19.3573 4.2194C19.6503 3.9264 20.1243 3.9264 20.4173 4.2194C20.7103 4.5124 20.7103 4.9874 20.4173 5.2804L4.64331 21.0534C4.49731 21.2004 4.30531 21.2734 4.11331 21.2734Z" fill="black"/>
</g>
</svg>
