<svg width="24" height="24" viewBox="0 0 24 24" fill="none" xmlns="http://www.w3.org/2000/svg">
<mask id="mask0_1_2819" style="mask-type:alpha" maskUnits="userSpaceOnUse" x="2" y="2" width="20" height="20">
<path fill-rule="evenodd" clip-rule="evenodd" d="M2.00043 2.0002H21.96V21.95H2.00043V2.0002Z" fill="white"/>
</mask>
<g mask="url(#mask0_1_2819)">
<path fill-rule="evenodd" clip-rule="evenodd" d="M7.65043 3.5C5.12943 3.5 3.50043 5.227 3.50043 7.899V16.051C3.50043 18.724 5.12943 20.45 7.65043 20.45H16.3004C18.8274 20.45 20.4604 18.724 20.4604 16.051V7.899C20.4604 5.227 18.8274 3.5 16.3004 3.5H7.65043ZM16.3004 21.95H7.65043C4.27043 21.95 2.00043 19.579 2.00043 16.051V7.899C2.00043 4.371 4.27043 2 7.65043 2H16.3004C19.6854 2 21.9604 4.371 21.9604 7.899V16.051C21.9604 19.579 19.6854 21.95 16.3004 21.95Z" fill="black"/>
</g>
<path fill-rule="evenodd" clip-rule="evenodd" d="M5.28144 17.1804C5.09544 17.1804 4.91044 17.1124 4.76544 16.9744C4.46444 16.6904 4.45244 16.2144 4.73744 15.9154L6.26544 14.3024C7.07444 13.4434 8.43944 13.4014 9.30244 14.2114L10.2604 15.1834C10.5274 15.4534 10.9614 15.4584 11.2294 15.1944C11.3304 15.0754 13.5084 12.4304 13.5084 12.4304C13.9224 11.9284 14.5064 11.6184 15.1554 11.5544C15.8054 11.4974 16.4364 11.6864 16.9394 12.0994C16.9824 12.1344 17.0214 12.1684 19.2174 14.4234C19.5064 14.7194 19.5014 15.1944 19.2044 15.4834C18.9084 15.7744 18.4324 15.7654 18.1434 15.4694C18.1434 15.4694 16.0944 13.3664 15.9484 13.2244C15.7934 13.0974 15.5444 13.0234 15.2994 13.0474C15.0504 13.0724 14.8264 13.1914 14.6674 13.3844C12.3434 16.2034 12.3154 16.2304 12.2774 16.2674C11.4194 17.1094 10.0344 17.0954 9.19144 16.2354C9.19144 16.2354 8.26144 15.2914 8.24544 15.2724C8.01444 15.0584 7.60244 15.0724 7.35544 15.3334L5.82544 16.9464C5.67744 17.1024 5.47944 17.1804 5.28144 17.1804Z" fill="black"/>
<path fill-rule="evenodd" clip-rule="evenodd" d="M8.55763 8.1289C8.00463 8.1289 7.55463 8.5789 7.55463 9.1329C7.55463 9.6869 8.00463 10.1379 8.55863 10.1379C9.11263 10.1379 9.56363 9.6869 9.56363 9.1329C9.56363 8.5799 9.11263 8.1299 8.55763 8.1289ZM8.55863 11.6379C7.17763 11.6379 6.05463 10.5139 6.05463 9.1329C6.05463 7.7519 7.17763 6.6289 8.55863 6.6289C9.94063 6.6299 11.0636 7.7539 11.0636 9.1329C11.0636 10.5139 9.93963 11.6379 8.55863 11.6379Z" fill="black"/>
</svg>
