<svg width="24" height="24" viewBox="0 0 24 24" fill="none" xmlns="http://www.w3.org/2000/svg">
<mask id="mask0_1_2834" style="mask-type:alpha" maskUnits="userSpaceOnUse" x="2" y="2" width="20" height="20">
<path fill-rule="evenodd" clip-rule="evenodd" d="M2.00043 2.0001H21.9534V21.954H2.00043V2.0001Z" fill="white"/>
</mask>
<g mask="url(#mask0_1_2834)">
<path fill-rule="evenodd" clip-rule="evenodd" d="M7.65143 3.5C5.13043 3.5 3.50043 5.229 3.50043 7.904V16.05C3.50043 18.726 5.13043 20.454 7.65143 20.454H16.2974C18.8224 20.454 20.4534 18.726 20.4534 16.05V7.904C20.4554 6.541 20.0394 5.403 19.2514 4.614C18.5234 3.885 17.5044 3.5 16.3024 3.5H7.65143ZM16.2974 21.954H7.65143C4.27143 21.954 2.00043 19.581 2.00043 16.05V7.904C2.00043 4.373 4.27143 2 7.65143 2H16.3024C17.9104 2 19.2974 2.537 20.3124 3.554C21.3734 4.616 21.9554 6.161 21.9534 7.905V16.05C21.9534 19.581 19.6804 21.954 16.2974 21.954Z" fill="black"/>
</g>
<path fill-rule="evenodd" clip-rule="evenodd" d="M8.85641 7.6895C8.25241 7.6895 7.76141 8.1805 7.76141 8.7855C7.76141 9.3895 8.25241 9.8805 8.85741 9.8805C9.46141 9.8805 9.95341 9.3895 9.95341 8.7865C9.95241 8.1815 9.46041 7.6905 8.85641 7.6895ZM8.85741 11.3805C7.42541 11.3805 6.26141 10.2165 6.26141 8.7855C6.26141 7.3535 7.42541 6.1895 8.85741 6.1895C10.2884 6.1905 11.4524 7.3545 11.4534 8.7845V8.7855C11.4534 10.2165 10.2894 11.3805 8.85741 11.3805Z" fill="black"/>
<path fill-rule="evenodd" clip-rule="evenodd" d="M3.74906 20.1113C3.62506 20.1113 3.49906 20.0803 3.38306 20.0153C3.02106 19.8123 2.89406 19.3553 3.09606 18.9943C3.15606 18.8863 4.59106 16.3493 6.17006 15.0493C7.42206 14.0193 8.77006 14.5853 9.85606 15.0423C10.4951 15.3113 11.0991 15.5653 11.6791 15.5653C12.2111 15.5653 12.8781 14.6253 13.4681 13.7963C14.2871 12.6403 15.2171 11.3323 16.5791 11.3323C18.7491 11.3323 20.6221 13.2683 21.6291 14.3083L21.7451 14.4283C22.0331 14.7253 22.0261 15.2003 21.7291 15.4893C21.4341 15.7783 20.9591 15.7713 20.6691 15.4733L20.5511 15.3513C19.6991 14.4703 18.1131 12.8323 16.5791 12.8323C15.9911 12.8323 15.3011 13.8053 14.6901 14.6643C13.8521 15.8443 12.9851 17.0653 11.6791 17.0653C10.7961 17.0653 9.98706 16.7253 9.27406 16.4243C8.14006 15.9463 7.62606 15.7933 7.12306 16.2073C5.75906 17.3313 4.41706 19.7053 4.40406 19.7283C4.26706 19.9733 4.01206 20.1113 3.74906 20.1113Z" fill="black"/>
</svg>
