<svg width="24" height="24" viewBox="0 0 24 24" fill="none" xmlns="http://www.w3.org/2000/svg">
<path fill-rule="evenodd" clip-rule="evenodd" d="M16.9229 10.2C16.5089 10.2 16.1729 9.864 16.1729 9.45V7.303C16.1729 5.207 14.4679 3.502 12.3719 3.502H12.3559C11.3429 3.502 10.3939 3.892 9.67688 4.603C8.95488 5.317 8.55588 6.27 8.55188 7.286V9.45C8.55188 9.864 8.21588 10.2 7.80188 10.2C7.38788 10.2 7.05188 9.864 7.05188 9.45V7.303C7.05788 5.863 7.61488 4.534 8.61988 3.538C9.62588 2.541 10.9539 1.964 12.3749 2.002C15.2949 2.002 17.6729 4.38 17.6729 7.303V9.45C17.6729 9.864 17.3369 10.2 16.9229 10.2Z" fill="black"/>
<path fill-rule="evenodd" clip-rule="evenodd" d="M8.542 10.1288C6.864 10.1288 5.5 11.4928 5.5 13.1708V17.4598C5.5 19.1378 6.864 20.5018 8.542 20.5018H16.183C17.86 20.5018 19.225 19.1378 19.225 17.4598V13.1708C19.225 11.4928 17.86 10.1288 16.183 10.1288H8.542ZM16.183 22.0018H8.542C6.037 22.0018 4 19.9648 4 17.4598V13.1708C4 10.6658 6.037 8.6288 8.542 8.6288H16.183C18.688 8.6288 20.725 10.6658 20.725 13.1708V17.4598C20.725 19.9648 18.688 22.0018 16.183 22.0018Z" fill="black"/>
<path fill-rule="evenodd" clip-rule="evenodd" d="M12.3623 17.1756C11.9483 17.1756 11.6123 16.8396 11.6123 16.4256V14.2046C11.6123 13.7906 11.9483 13.4546 12.3623 13.4546C12.7763 13.4546 13.1123 13.7906 13.1123 14.2046V16.4256C13.1123 16.8396 12.7763 17.1756 12.3623 17.1756Z" fill="black"/>
</svg>
