<svg width="24" height="24" viewBox="0 0 24 24" fill="none" xmlns="http://www.w3.org/2000/svg">
<path fill-rule="evenodd" clip-rule="evenodd" d="M11.7769 13.4648C11.1079 13.4648 10.4409 13.2438 9.8829 12.8018L5.3979 9.1858C5.0749 8.9258 5.0249 8.4528 5.2839 8.1308C5.5449 7.8098 6.0169 7.7588 6.3389 8.0178L10.8199 11.6298C11.3829 12.0758 12.1759 12.0758 12.7429 11.6258L17.1789 8.0198C17.5009 7.7568 17.9729 7.8068 18.2349 8.1288C18.4959 8.4498 18.4469 8.9218 18.1259 9.1838L13.6819 12.7958C13.1199 13.2418 12.4479 13.4648 11.7769 13.4648Z" fill="black"/>
<mask id="mask0_1_2864" style="mask-type:alpha" maskUnits="userSpaceOnUse" x="1" y="2" width="22" height="20">
<path fill-rule="evenodd" clip-rule="evenodd" d="M1 2H22.4999V21.5H1V2Z" fill="white"/>
</mask>
<g mask="url(#mask0_1_2864)">
<path fill-rule="evenodd" clip-rule="evenodd" d="M6.8389 20H16.6589C16.6609 19.998 16.6689 20 16.6749 20C17.8159 20 18.8279 19.592 19.6039 18.817C20.5049 17.92 20.9999 16.631 20.9999 15.188V8.32C20.9999 5.527 19.1739 3.5 16.6589 3.5H6.8409C4.3259 3.5 2.4999 5.527 2.4999 8.32V15.188C2.4999 16.631 2.9959 17.92 3.8959 18.817C4.6719 19.592 5.6849 20 6.8249 20H6.8389ZM6.8219 21.5C5.2789 21.5 3.9009 20.94 2.8369 19.88C1.6519 18.698 0.999901 17.032 0.999901 15.188V8.32C0.999901 4.717 3.5109 2 6.8409 2H16.6589C19.9889 2 22.4999 4.717 22.4999 8.32V15.188C22.4999 17.032 21.8479 18.698 20.6629 19.88C19.5999 20.939 18.2209 21.5 16.6749 21.5H16.6589H6.8409H6.8219Z" fill="black"/>
</g>
</svg>
