<svg width="24" height="24" viewBox="0 0 24 24" fill="none" xmlns="http://www.w3.org/2000/svg">
<mask id="mask0_1_2841" style="mask-type:alpha" maskUnits="userSpaceOnUse" x="2" y="3" width="20" height="20">
<path fill-rule="evenodd" clip-rule="evenodd" d="M2 3.0004H21.499V22.4994H2V3.0004Z" fill="white"/>
</mask>
<g mask="url(#mask0_1_2841)">
<path fill-rule="evenodd" clip-rule="evenodd" d="M10.8049 14.8178L14.4619 20.7508C14.6219 21.0108 14.8719 21.0078 14.9729 20.9938C15.0739 20.9798 15.3169 20.9178 15.4049 20.6228L19.9779 5.1778C20.0579 4.9048 19.9109 4.7188 19.8449 4.6528C19.7809 4.5868 19.5979 4.4458 19.3329 4.5208L3.87688 9.0468C3.58388 9.1328 3.51988 9.3788 3.50588 9.4798C3.49188 9.5828 3.48788 9.8378 3.74688 10.0008L9.74788 13.7538L15.0499 8.3958C15.3409 8.1018 15.8159 8.0988 16.1109 8.3898C16.4059 8.6808 16.4079 9.1568 16.1169 9.4508L10.8049 14.8178ZM14.8949 22.4998C14.1989 22.4998 13.5609 22.1458 13.1849 21.5378L9.30788 15.2468L2.95188 11.2718C2.26688 10.8428 1.90888 10.0788 2.01988 9.2758C2.12988 8.4728 2.68088 7.8348 3.45488 7.6078L18.9109 3.0818C19.6219 2.8738 20.3839 3.0708 20.9079 3.5928C21.4319 4.1198 21.6269 4.8898 21.4149 5.6038L16.8419 21.0478C16.6129 21.8248 15.9729 22.3738 15.1719 22.4808C15.0779 22.4928 14.9869 22.4998 14.8949 22.4998Z" fill="black"/>
</g>
</svg>
