<svg width="24" height="24" viewBox="0 0 24 24" fill="none" xmlns="http://www.w3.org/2000/svg">
<path fill-rule="evenodd" clip-rule="evenodd" d="M11.9996 9.6413C10.6696 9.6413 9.58859 10.7233 9.58859 12.0533C9.58859 13.3823 10.6696 14.4633 11.9996 14.4633C13.3296 14.4633 14.4116 13.3823 14.4116 12.0533C14.4116 10.7233 13.3296 9.6413 11.9996 9.6413ZM11.9996 15.9633C9.84259 15.9633 8.08859 14.2093 8.08859 12.0533C8.08859 9.8963 9.84259 8.1413 11.9996 8.1413C14.1566 8.1413 15.9116 9.8963 15.9116 12.0533C15.9116 14.2093 14.1566 15.9633 11.9996 15.9633Z" fill="black"/>
<mask id="mask0_1_2850" style="mask-type:alpha" maskUnits="userSpaceOnUse" x="2" y="4" width="20" height="17">
<path fill-rule="evenodd" clip-rule="evenodd" d="M2.00015 4.0002H22V20.1052H2.00015V4.0002Z" fill="white"/>
</mask>
<g mask="url(#mask0_1_2850)">
<path fill-rule="evenodd" clip-rule="evenodd" d="M3.5699 12.0525C5.4299 16.1615 8.5629 18.6045 11.9999 18.6055C15.4369 18.6045 18.5699 16.1615 20.4299 12.0525C18.5699 7.9445 15.4369 5.5015 11.9999 5.5005C8.5639 5.5015 5.4299 7.9445 3.5699 12.0525ZM12.0019 20.1055H11.9979H11.9969C7.8609 20.1025 4.1469 17.2035 2.0609 12.3485C1.9799 12.1595 1.9799 11.9455 2.0609 11.7565C4.1469 6.9025 7.8619 4.0035 11.9969 4.0005C11.9989 3.9995 11.9989 3.9995 11.9999 4.0005C12.0019 3.9995 12.0019 3.9995 12.0029 4.0005C16.1389 4.0035 19.8529 6.9025 21.9389 11.7565C22.0209 11.9455 22.0209 12.1595 21.9389 12.3485C19.8539 17.2035 16.1389 20.1025 12.0029 20.1055H12.0019Z" fill="black"/>
</g>
</svg>
