<svg width="24" height="24" viewBox="0 0 24 24" fill="none" xmlns="http://www.w3.org/2000/svg">
<path fill-rule="evenodd" clip-rule="evenodd" d="M13.5996 8.1709C13.1856 8.1709 12.8496 7.8349 12.8496 7.4209V4.9999C12.8496 4.5859 13.1856 4.2499 13.5996 4.2499C14.0136 4.2499 14.3496 4.5859 14.3496 4.9999V7.4209C14.3496 7.8349 14.0136 8.1709 13.5996 8.1709Z" fill="black"/>
<path fill-rule="evenodd" clip-rule="evenodd" d="M13.5996 21.2842C13.1856 21.2842 12.8496 20.9482 12.8496 20.5342V18.5112C12.8496 18.0962 13.1856 17.7612 13.5996 17.7612C14.0136 17.7612 14.3496 18.0962 14.3496 18.5112V20.5342C14.3496 20.9482 14.0136 21.2842 13.5996 21.2842Z" fill="black"/>
<path fill-rule="evenodd" clip-rule="evenodd" d="M13.5996 15.8252C13.1856 15.8252 12.8496 15.4892 12.8496 15.0752V10.2542C12.8496 9.8402 13.1856 9.5042 13.5996 9.5042C14.0136 9.5042 14.3496 9.8402 14.3496 10.2542V15.0752C14.3496 15.4892 14.0136 15.8252 13.5996 15.8252Z" fill="black"/>
<mask id="mask0_1_2813" style="mask-type:alpha" maskUnits="userSpaceOnUse" x="1" y="4" width="22" height="18">
<path fill-rule="evenodd" clip-rule="evenodd" d="M1 4H22.5V21.4997H1V4Z" fill="white"/>
</mask>
<g mask="url(#mask0_1_2813)">
<path fill-rule="evenodd" clip-rule="evenodd" d="M2.5 15.5537V17.4927C2.5 18.8747 3.643 19.9997 5.048 19.9997H18.452C19.857 19.9997 21 18.8747 21 17.4927V15.5537C19.749 15.2247 18.823 14.0927 18.823 12.7507C18.823 11.4077 19.748 10.2767 21 9.9477L20.999 8.0067C20.999 6.6247 19.856 5.4997 18.451 5.4997H5.049C3.644 5.4997 2.501 6.6247 2.501 8.0067L2.5 10.0247C3.767 10.3357 4.677 11.4217 4.677 12.7507C4.677 14.0927 3.751 15.2247 2.5 15.5537ZM18.452 21.4997H5.048C2.816 21.4997 1 19.7017 1 17.4927V14.9007C1 14.4867 1.336 14.1507 1.75 14.1507C2.537 14.1507 3.177 13.5227 3.177 12.7507C3.177 12.0007 2.563 11.4347 1.75 11.4347C1.551 11.4347 1.36 11.3557 1.22 11.2147C1.079 11.0747 1 10.8827 1 10.6847L1.001 8.0067C1.001 5.7977 2.817 3.9997 5.049 3.9997H18.451C20.683 3.9997 22.499 5.7977 22.499 8.0067L22.5 10.6007C22.5 10.7987 22.421 10.9907 22.28 11.1307C22.14 11.2717 21.949 11.3507 21.75 11.3507C20.963 11.3507 20.323 11.9787 20.323 12.7507C20.323 13.5227 20.963 14.1507 21.75 14.1507C22.164 14.1507 22.5 14.4867 22.5 14.9007V17.4927C22.5 19.7017 20.684 21.4997 18.452 21.4997Z" fill="black"/>
</g>
</svg>
