<svg width="24" height="24" viewBox="0 0 24 24" fill="none" xmlns="http://www.w3.org/2000/svg">
<mask id="mask0_1_2858" style="mask-type:alpha" maskUnits="userSpaceOnUse" x="2" y="8" width="20" height="15">
<path fill-rule="evenodd" clip-rule="evenodd" d="M2.00043 8.7941H22V22.5381H2.00043V8.7941Z" fill="white"/>
</mask>
<g mask="url(#mask0_1_2858)">
<path fill-rule="evenodd" clip-rule="evenodd" d="M17.5654 22.5381H6.43543C3.99043 22.5381 2.00043 20.5491 2.00043 18.1031V13.2281C2.00043 10.7831 3.99043 8.7941 6.43543 8.7941H7.36843C7.78243 8.7941 8.11843 9.1301 8.11843 9.5441C8.11843 9.9581 7.78243 10.2941 7.36843 10.2941H6.43543C4.81643 10.2941 3.50043 11.6101 3.50043 13.2281V18.1031C3.50043 19.7221 4.81643 21.0381 6.43543 21.0381H17.5654C19.1834 21.0381 20.5004 19.7221 20.5004 18.1031V13.2191C20.5004 11.6061 19.1884 10.2941 17.5764 10.2941H16.6334C16.2194 10.2941 15.8834 9.9581 15.8834 9.5441C15.8834 9.1301 16.2194 8.7941 16.6334 8.7941H17.5764C20.0154 8.7941 22.0004 10.7791 22.0004 13.2191V18.1031C22.0004 20.5491 20.0104 22.5381 17.5654 22.5381Z" fill="black"/>
</g>
<mask id="mask1_1_2858" style="mask-type:alpha" maskUnits="userSpaceOnUse" x="11" y="2" width="2" height="14">
<path fill-rule="evenodd" clip-rule="evenodd" d="M11.25 2.0001H12.75V15.541H11.25V2.0001Z" fill="white"/>
</mask>
<g mask="url(#mask1_1_2858)">
<path fill-rule="evenodd" clip-rule="evenodd" d="M12 15.541C11.586 15.541 11.25 15.205 11.25 14.791V2.75C11.25 2.336 11.586 2 12 2C12.414 2 12.75 2.336 12.75 2.75V14.791C12.75 15.205 12.414 15.541 12 15.541Z" fill="black"/>
</g>
<path fill-rule="evenodd" clip-rule="evenodd" d="M9.08502 6.4287C8.89402 6.4287 8.70202 6.3557 8.55602 6.2097C8.26302 5.9177 8.26102 5.4437 8.55402 5.1497L11.469 2.2217C11.75 1.9387 12.25 1.9387 12.531 2.2217L15.447 5.1497C15.739 5.4437 15.738 5.9177 15.445 6.2097C15.151 6.5017 14.677 6.5017 14.385 6.2077L12 3.8137L9.61602 6.2077C9.47002 6.3557 9.27702 6.4287 9.08502 6.4287Z" fill="black"/>
</svg>
