<svg width="24" height="24" viewBox="0 0 24 24" fill="none" xmlns="http://www.w3.org/2000/svg">
<mask id="mask0_1_2818" style="mask-type:alpha" maskUnits="userSpaceOnUse" x="2" y="5" width="16" height="16">
<path fill-rule="evenodd" clip-rule="evenodd" d="M2.0002 5.00025H17.5005V20.5016H2.0002V5.00025Z" fill="white"/>
</mask>
<g mask="url(#mask0_1_2818)">
<path fill-rule="evenodd" clip-rule="evenodd" d="M6.84731 6.5016C6.40831 6.5016 6.12531 6.5016 6.07631 6.5036C5.33831 6.5346 4.65731 6.8476 4.16631 7.3836C3.70831 7.8846 3.47231 8.5246 3.50331 9.1886C3.50331 12.0816 3.50431 16.4236 3.51131 16.6616C3.62531 18.0466 4.92331 19.1056 6.40931 18.9916C9.15931 18.9956 13.2333 19.0046 13.4243 18.9976C14.1593 18.9676 14.8413 18.6556 15.3323 18.1206C15.7913 17.6216 16.0273 16.9816 15.9983 16.3206C15.9973 16.3096 15.9973 16.2986 15.9973 16.2876C15.9983 13.4276 15.9983 9.0886 15.9913 8.8556C15.8783 7.4636 14.5743 6.3916 13.0803 6.5086C11.0143 6.5056 8.19531 6.5016 6.84731 6.5016ZM6.14631 20.5016C4.03231 20.5026 2.18831 18.8826 2.01431 16.7576C2.01131 16.7166 2.00131 16.5916 2.00431 9.2226C1.95631 8.1916 2.33031 7.1676 3.06031 6.3706C3.82231 5.5386 4.87331 5.0536 6.02031 5.0046C6.15931 4.9946 10.9673 5.0066 13.0263 5.0106C15.2763 4.8526 17.3073 6.5226 17.4883 8.7636C17.4963 8.8726 17.4993 11.3976 17.4973 16.2726C17.5393 17.3286 17.1633 18.3456 16.4373 19.1356C15.6743 19.9666 14.6223 20.4496 13.4763 20.4966C13.3363 20.5066 8.52631 20.4936 6.46431 20.4896C6.35831 20.4976 6.25231 20.5016 6.14631 20.5016Z" fill="black"/>
</g>
<path fill-rule="evenodd" clip-rule="evenodd" d="M20.8185 18.3493C20.3675 18.3493 19.9225 18.1943 19.5555 17.8933L16.2745 15.1973C15.9545 14.9343 15.9085 14.4613 16.1715 14.1413C16.4335 13.8223 16.9065 13.7743 17.2265 14.0383L20.5065 16.7343C20.7275 16.9143 20.9495 16.8403 21.0355 16.7983C21.1215 16.7583 21.3205 16.6333 21.3205 16.3493L21.3325 9.0003C21.3335 8.7163 21.1335 8.5913 21.0475 8.5503C20.9625 8.5103 20.7375 8.4353 20.5185 8.6153L17.2255 11.3103C16.9035 11.5733 16.4325 11.5263 16.1705 11.2043C15.9075 10.8843 15.9555 10.4123 16.2755 10.1503L19.5685 7.4543C20.1725 6.9593 20.9855 6.8623 21.6905 7.1953C22.3955 7.5303 22.8335 8.2223 22.8325 9.0023L22.8205 16.3513C22.8195 17.1313 22.3805 17.8233 21.6765 18.1553C21.4005 18.2863 21.1085 18.3493 20.8185 18.3493Z" fill="black"/>
</svg>
