<svg width="24" height="24" viewBox="0 0 24 24" fill="none" xmlns="http://www.w3.org/2000/svg">
<path fill-rule="evenodd" clip-rule="evenodd" d="M11.9951 17.4267C11.5811 17.4267 11.2451 17.0907 11.2451 16.6767V14.1397C11.2451 13.7257 11.5811 13.3897 11.9951 13.3897C12.4091 13.3897 12.7451 13.7257 12.7451 14.1397V16.6767C12.7451 17.0907 12.4091 17.4267 11.9951 17.4267Z" fill="black"/>
<mask id="mask0_1_2849" style="mask-type:alpha" maskUnits="userSpaceOnUse" x="2" y="4" width="20" height="11">
<path fill-rule="evenodd" clip-rule="evenodd" d="M2.00018 4.58H21.99V14.891H2.00018V4.58Z" fill="white"/>
</mask>
<g mask="url(#mask0_1_2849)">
<path fill-rule="evenodd" clip-rule="evenodd" d="M3.50018 11.393C5.87618 12.684 8.87218 13.391 11.9902 13.391C15.1142 13.391 18.1132 12.684 20.4902 11.393V8.391C20.4902 7.116 19.4592 6.08 18.1902 6.08H5.81018C4.53618 6.08 3.50018 7.112 3.50018 8.381V11.393ZM11.9902 14.891C8.44518 14.891 5.02818 14.033 2.37118 12.477C2.14118 12.343 2.00018 12.097 2.00018 11.83V8.381C2.00018 6.285 3.70918 4.58 5.81018 4.58H18.1902C20.2862 4.58 21.9902 6.289 21.9902 8.391V11.83C21.9902 12.097 21.8482 12.343 21.6192 12.477C18.9622 14.033 15.5422 14.891 11.9902 14.891Z" fill="black"/>
</g>
<mask id="mask1_1_2849" style="mask-type:alpha" maskUnits="userSpaceOnUse" x="7" y="2" width="10" height="5">
<path fill-rule="evenodd" clip-rule="evenodd" d="M7.74506 2.0002H16.2451V6.0761H7.74506V2.0002Z" fill="white"/>
</mask>
<g mask="url(#mask1_1_2849)">
<path fill-rule="evenodd" clip-rule="evenodd" d="M15.4951 6.0761C15.0811 6.0761 14.7451 5.7401 14.7451 5.3261V4.9601C14.7451 4.1551 14.0901 3.5001 13.2851 3.5001H10.7051C9.90006 3.5001 9.24506 4.1551 9.24506 4.9601V5.3261C9.24506 5.7401 8.90906 6.0761 8.49506 6.0761C8.08106 6.0761 7.74506 5.7401 7.74506 5.3261V4.9601C7.74506 3.3281 9.07306 2.0001 10.7051 2.0001H13.2851C14.9171 2.0001 16.2451 3.3281 16.2451 4.9601V5.3261C16.2451 5.7401 15.9091 6.0761 15.4951 6.0761Z" fill="black"/>
</g>
<path fill-rule="evenodd" clip-rule="evenodd" d="M17.7949 21.7402H6.19488C4.11988 21.7402 2.37288 20.1192 2.21588 18.0492L2.02588 15.5402C1.99488 15.1272 2.30488 14.7662 2.71788 14.7352C3.13288 14.7202 3.49088 15.0132 3.52288 15.4272L3.71188 17.9352C3.80988 19.2272 4.89988 20.2402 6.19488 20.2402H17.7949C19.0899 20.2402 20.1809 19.2272 20.2779 17.9352L20.4679 15.4272C20.4999 15.0132 20.8669 14.7192 21.2729 14.7352C21.6859 14.7662 21.9949 15.1272 21.9639 15.5402L21.7739 18.0492C21.6169 20.1192 19.8699 21.7402 17.7949 21.7402Z" fill="black"/>
</svg>
