<svg width="125" height="40" viewBox="0 0 125 40" fill="none" xmlns="http://www.w3.org/2000/svg">
<path d="M18.8294 12.9869L33.9393 2.5H8.5L18.8294 12.9869Z" fill="#1CA7EC"/>
<path d="M26.1952 20.4669L8.51173 32.74H8.5V2.5L26.1952 20.4669Z" fill="#40FFCA"/>
<path d="M39.6783 27.6588L38.4182 28.9413V31.9338H34.1428V15.2388H38.4182V23.9912L42.7836 19.7388H47.8466L42.7836 24.9587L48.2741 31.9338H43.0986L39.6783 27.6588ZM55.1596 32.1362C53.8545 32.1362 52.677 31.8661 51.6268 31.3263C50.5768 30.7863 49.7554 30.0364 49.1629 29.0763C48.5704 28.1162 48.274 27.0288 48.274 25.8138C48.274 24.6138 48.5704 23.5339 49.1629 22.5738C49.7554 21.6139 50.573 20.8676 51.6156 20.3351C52.6582 19.8027 53.8395 19.5364 55.1596 19.5364C56.4798 19.5364 57.6648 19.8027 58.715 20.3351C59.7651 20.8676 60.5825 21.61 61.1676 22.5626C61.7528 23.5151 62.0453 24.5988 62.0453 25.8138C62.0453 27.0289 61.7528 28.1163 61.1676 29.0763C60.5827 30.0364 59.7652 30.7863 58.715 31.3263C57.6648 31.8663 56.4798 32.1362 55.1596 32.1362ZM55.1596 28.7388C55.9098 28.7388 56.5249 28.48 57.0048 27.9625C57.4848 27.445 57.7248 26.7288 57.7248 25.8137C57.7248 24.9139 57.4848 24.2087 57.0048 23.6988C56.5249 23.1888 55.9098 22.9337 55.1596 22.9337C54.4095 22.9337 53.7944 23.1889 53.3144 23.6988C52.8345 24.2087 52.5945 24.9139 52.5945 25.8137C52.5945 26.7288 52.8345 27.445 53.3144 27.9625C53.7944 28.48 54.4095 28.7388 55.1596 28.7388ZM71.9686 19.5363C73.4836 19.5363 74.7027 19.9863 75.6252 20.8862C76.5477 21.7863 77.009 23.1438 77.009 24.9587V31.9338H72.7337V25.6563C72.7337 23.9913 72.0661 23.1588 70.731 23.1588C69.9959 23.1588 69.4072 23.3987 68.9647 23.8788C68.5222 24.3587 68.3008 25.0786 68.3008 26.0388V31.9338H64.0255V19.7388H68.0983V21.0664C68.5783 20.5713 69.1484 20.1925 69.8085 19.93C70.4685 19.6675 71.1886 19.5363 71.9686 19.5363ZM92.3329 25.8588C92.3329 25.8887 92.3104 26.2412 92.2653 26.9163H83.3996C83.5796 27.5463 83.9283 28.0299 84.4459 28.3675C84.9634 28.705 85.6123 28.8737 86.3923 28.8737C86.9773 28.8737 87.4837 28.7911 87.9113 28.6261C88.3387 28.4611 88.7701 28.1913 89.2051 27.8162L91.4553 30.1562C90.2703 31.4762 88.5375 32.1361 86.2574 32.1361C84.8323 32.1361 83.5797 31.866 82.4995 31.3262C81.4195 30.7862 80.5832 30.0363 79.9907 29.0762C79.3981 28.1161 79.1018 27.0287 79.1018 25.8137C79.1018 24.6136 79.3906 23.5375 79.9682 22.585C80.5457 21.6325 81.3444 20.8862 82.3645 20.3462C83.3847 19.8063 84.5322 19.5363 85.8074 19.5363C87.0225 19.5363 88.1249 19.7875 89.1152 20.29C90.1053 20.7926 90.8891 21.5201 91.4666 22.4726C92.0441 23.4252 92.3329 24.5537 92.3329 25.8588ZM85.8299 22.5738C85.1697 22.5738 84.6185 22.7614 84.1759 23.1363C83.7334 23.5114 83.452 24.0215 83.3321 24.6664H88.3274C88.2074 24.0215 87.9262 23.5114 87.4837 23.1363C87.0412 22.7614 86.49 22.5738 85.8299 22.5738ZM100.546 32.1364C99.196 32.1364 97.9885 31.8663 96.9233 31.3264C95.8582 30.7864 95.0293 30.0365 94.437 29.0764C93.8444 28.1163 93.5481 27.0289 93.5481 25.814C93.5481 24.5989 93.8444 23.5152 94.437 22.5627C95.0294 21.6101 95.8583 20.8677 96.9233 20.3352C97.9885 19.8028 99.196 19.5365 100.546 19.5365C101.926 19.5365 103.119 19.8328 104.124 20.4254C105.129 21.0179 105.842 21.839 106.262 22.8891L102.954 24.5765C102.399 23.4815 101.589 22.934 100.524 22.934C99.7586 22.934 99.1248 23.1891 98.6223 23.6991C98.1198 24.2089 97.8685 24.9141 97.8685 25.814C97.8685 26.729 98.1198 27.4452 98.6223 27.9628C99.1248 28.4802 99.7586 28.739 100.524 28.739C101.589 28.739 102.399 28.1915 102.954 27.0965L106.262 28.784C105.842 29.8339 105.129 30.6552 104.124 31.2476C103.119 31.8402 101.926 32.1364 100.546 32.1364ZM116.5 31.4387C116.14 31.6638 115.701 31.8364 115.184 31.9563C114.666 32.0763 114.115 32.1362 113.53 32.1362C111.94 32.1362 110.717 31.7462 109.862 30.9663C109.007 30.1862 108.579 29.0239 108.579 27.4788V23.3838H106.802V20.1888H108.579V17.0164H112.855V20.1888H115.645V23.3838H112.855V27.4337C112.855 27.8688 112.971 28.21 113.203 28.4574C113.436 28.705 113.747 28.8286 114.137 28.8286C114.632 28.8286 115.067 28.7012 115.442 28.4462L116.5 31.4387Z" fill="white"/>
<path d="M26.1952 20.467L8.51173 32.74H8.5V20.1564L18.8294 12.9869L26.1952 20.467Z" fill="#46F0CF"/>
<rect x="92" y="5" width="24.2693" height="8.2" rx="2" fill="#00CDB4"/>
<path d="M99.084 9.016C99.324 9.092 99.512 9.22 99.648 9.4C99.784 9.576 99.852 9.794 99.852 10.054C99.852 10.422 99.708 10.706 99.42 10.906C99.136 11.102 98.72 11.2 98.172 11.2H96V7H98.052C98.564 7 98.956 7.098 99.228 7.294C99.504 7.49 99.642 7.756 99.642 8.092C99.642 8.296 99.592 8.478 99.492 8.638C99.396 8.798 99.26 8.924 99.084 9.016ZM96.966 7.732V8.722H97.932C98.172 8.722 98.354 8.68 98.478 8.596C98.602 8.512 98.664 8.388 98.664 8.224C98.664 8.06 98.602 7.938 98.478 7.858C98.354 7.774 98.172 7.732 97.932 7.732H96.966ZM98.1 10.468C98.356 10.468 98.548 10.426 98.676 10.342C98.808 10.258 98.874 10.128 98.874 9.952C98.874 9.604 98.616 9.43 98.1 9.43H96.966V10.468H98.1Z" fill="white"/>
<path d="M103.84 10.42V11.2H100.588V7H103.762V7.78H101.554V8.692H103.504V9.448H101.554V10.42H103.84Z" fill="white"/>
<path d="M105.483 7.792H104.139V7H107.799V7.792H106.455V11.2H105.483V7.792Z" fill="white"/>
<path d="M110.877 10.3H108.927L108.555 11.2H107.559L109.431 7H110.391L112.269 11.2H111.249L110.877 10.3ZM110.571 9.562L109.905 7.954L109.239 9.562H110.571Z" fill="white"/>
</svg>
