<svg width="24" height="24" viewBox="0 0 24 24" fill="none" xmlns="http://www.w3.org/2000/svg">
<path fill-rule="evenodd" clip-rule="evenodd" d="M7.66982 1.99927H16.3398C19.7298 1.99927 21.9998 4.37927 21.9998 7.91927V16.0903C21.9998 19.6203 19.7298 21.9993 16.3398 21.9993H7.66982C4.27982 21.9993 1.99982 19.6203 1.99982 16.0903V7.91927C1.99982 4.37927 4.27982 1.99927 7.66982 1.99927ZM15.0098 14.9993C15.3498 14.6603 15.3498 14.1103 15.0098 13.7703L13.2298 11.9903L15.0098 10.2093C15.3498 9.87027 15.3498 9.31027 15.0098 8.97027C14.6698 8.62927 14.1198 8.62927 13.7698 8.97027L11.9998 10.7493L10.2198 8.97027C9.86982 8.62927 9.31982 8.62927 8.97982 8.97027C8.63982 9.31027 8.63982 9.87027 8.97982 10.2093L10.7598 11.9903L8.97982 13.7603C8.63982 14.1103 8.63982 14.6603 8.97982 14.9993C9.14982 15.1693 9.37982 15.2603 9.59982 15.2603C9.82982 15.2603 10.0498 15.1693 10.2198 14.9993L11.9998 13.2303L13.7798 14.9993C13.9498 15.1803 14.1698 15.2603 14.3898 15.2603C14.6198 15.2603 14.8398 15.1693 15.0098 14.9993Z" fill="#130F26"/>
</svg>
