<svg width="24" height="24" viewBox="0 0 24 24" fill="none" xmlns="http://www.w3.org/2000/svg">
<path fill-rule="evenodd" clip-rule="evenodd" d="M7.67018 2H16.3402C19.7302 2 22.0002 4.38 22.0002 7.92V16.09C22.0002 19.62 19.7302 22 16.3402 22H7.67018C4.28018 22 2.00018 19.62 2.00018 16.09V7.92C2.00018 4.38 4.28018 2 7.67018 2ZM7.52018 13.2C6.86018 13.2 6.32018 12.66 6.32018 12C6.32018 11.34 6.86018 10.801 7.52018 10.801C8.18018 10.801 8.72018 11.34 8.72018 12C8.72018 12.66 8.18018 13.2 7.52018 13.2ZM10.8002 12C10.8002 12.66 11.3402 13.2 12.0002 13.2C12.6602 13.2 13.2002 12.66 13.2002 12C13.2002 11.34 12.6602 10.801 12.0002 10.801C11.3402 10.801 10.8002 11.34 10.8002 12ZM15.2802 12C15.2802 12.66 15.8202 13.2 16.4802 13.2C17.1402 13.2 17.6702 12.66 17.6702 12C17.6702 11.34 17.1402 10.801 16.4802 10.801C15.8202 10.801 15.2802 11.34 15.2802 12Z" fill="#130F26"/>
</svg>
