<svg width="24" height="24" viewBox="0 0 24 24" fill="none" xmlns="http://www.w3.org/2000/svg">
<path fill-rule="evenodd" clip-rule="evenodd" d="M17.0107 14.6013C17.4247 14.6013 17.7607 14.2653 17.7607 13.8513V11.9993C17.7607 11.5853 17.4247 11.2493 17.0107 11.2493H11.3187C10.9947 10.1823 10.0127 9.39827 8.84069 9.39827C7.40669 9.39827 6.23969 10.5653 6.23969 11.9993C6.23969 13.4343 7.40669 14.6013 8.84069 14.6013C10.0127 14.6013 10.9947 13.8173 11.3187 12.7493H13.4307V13.8513C13.4307 14.2653 13.7667 14.6013 14.1807 14.6013C14.5947 14.6013 14.9307 14.2653 14.9307 13.8513V12.7493H16.2607V13.8513C16.2607 14.2653 16.5967 14.6013 17.0107 14.6013ZM7.66569 1.99927H16.3347C19.7227 1.99927 21.9997 4.37727 21.9997 7.91627V16.0833C21.9997 19.6223 19.7227 21.9993 16.3337 21.9993H7.66569C4.27669 21.9993 1.99969 19.6223 1.99969 16.0833V7.91627C1.99969 4.37727 4.27669 1.99927 7.66569 1.99927ZM7.73879 12.0002C7.73879 11.3922 8.23379 10.8982 8.84079 10.8982C9.44779 10.8982 9.94279 11.3922 9.94279 12.0002C9.94279 12.6072 9.44779 13.1012 8.84079 13.1012C8.23379 13.1012 7.73879 12.6072 7.73879 12.0002Z" fill="#130F26"/>
</svg>
