<svg width="24" height="24" viewBox="0 0 24 24" fill="none" xmlns="http://www.w3.org/2000/svg">
<path fill-rule="evenodd" clip-rule="evenodd" d="M7.3302 2H16.6602C20.0602 2 22.0002 3.92 22.0002 7.33V16.67C22.0002 20.06 20.0702 22 16.6702 22H7.3302C3.9202 22 2.0002 20.06 2.0002 16.67V7.33C2.0002 3.92 3.9202 2 7.3302 2ZM12.8202 12.83H15.6602C16.1202 12.82 16.4902 12.45 16.4902 11.99C16.4902 11.53 16.1202 11.16 15.6602 11.16H12.8202V8.34C12.8202 7.88 12.4502 7.51 11.9902 7.51C11.5302 7.51 11.1602 7.88 11.1602 8.34V11.16H8.3302C8.1102 11.16 7.9002 11.25 7.7402 11.4C7.5902 11.56 7.5002 11.769 7.5002 11.99C7.5002 12.45 7.8702 12.82 8.3302 12.83H11.1602V15.66C11.1602 16.12 11.5302 16.49 11.9902 16.49C12.4502 16.49 12.8202 16.12 12.8202 15.66V12.83Z" fill="#130F26"/>
</svg>
