<?xml version="1.0" encoding="UTF-8" standalone="no"?>
<svg
   xmlns:dc="http://purl.org/dc/elements/1.1/"
   xmlns:cc="http://creativecommons.org/ns#"
   xmlns:rdf="http://www.w3.org/1999/02/22-rdf-syntax-ns#"
   xmlns:svg="http://www.w3.org/2000/svg"
   xmlns="http://www.w3.org/2000/svg"
   xmlns:sodipodi="http://sodipodi.sourceforge.net/DTD/sodipodi-0.dtd"
   xmlns:inkscape="http://www.inkscape.org/namespaces/inkscape"
   width="24"
   height="24"
   viewBox="0 0 24 24"
   fill="none"
   version="1.1"
   id="svg4"
   sodipodi:docname="Danger.svg"
   inkscape:version="0.92.4 (5da689c313, 2019-01-14)">
  <metadata
     id="metadata10">
    <rdf:RDF>
      <cc:Work
         rdf:about="">
        <dc:format>image/svg+xml</dc:format>
        <dc:type
           rdf:resource="http://purl.org/dc/dcmitype/StillImage" />
        <dc:title></dc:title>
      </cc:Work>
    </rdf:RDF>
  </metadata>
  <defs
     id="defs8" />
  <sodipodi:namedview
     pagecolor="#ffffff"
     bordercolor="#666666"
     borderopacity="1"
     objecttolerance="10"
     gridtolerance="10"
     guidetolerance="10"
     inkscape:pageopacity="0"
     inkscape:pageshadow="2"
     inkscape:window-width="1920"
     inkscape:window-height="1000"
     id="namedview6"
     showgrid="false"
     inkscape:zoom="9.8333333"
     inkscape:cx="12"
     inkscape:cy="12"
     inkscape:window-x="-11"
     inkscape:window-y="-11"
     inkscape:window-maximized="1"
     inkscape:current-layer="svg4" />
  <path
     fill-rule="evenodd"
     clip-rule="evenodd"
     d="M14.4773 4.44209L21.746 17.0572C21.906 17.4338 21.976 17.7399 21.996 18.058C22.036 18.8012 21.776 19.5236 21.2661 20.0795C20.7562 20.6334 20.0663 20.9604 19.3164 21H4.6789C4.36896 20.9812 4.05901 20.9108 3.76906 20.8018C2.3193 20.2172 1.61942 18.5723 2.20932 17.1464L9.52809 4.43317C9.77804 3.98628 10.158 3.60082 10.6279 3.35309C11.9877 2.59902 13.7174 3.09447 14.4773 4.44209ZM12.8675 12.7557C12.8675 13.2314 12.4776 13.6287 11.9977 13.6287C11.5178 13.6287 11.1178 13.2314 11.1178 12.7557V9.95248C11.1178 9.47585 11.5178 9.09039 11.9977 9.09039C12.4776 9.09039 12.8675 9.47585 12.8675 9.95248V12.7557ZM11.9977 17.0176C11.5178 17.0176 11.1178 16.6202 11.1178 16.1456C11.1178 15.669 11.5178 15.2726 11.9977 15.2726C12.4776 15.2726 12.8675 15.6601 12.8675 16.1347C12.8675 16.6202 12.4776 17.0176 11.9977 17.0176Z"
     fill="#130F26"
     id="path2"
     style="fill:#A0AABF" />
</svg>
