<?xml version="1.0" encoding="UTF-8" standalone="no"?>
<svg
   xmlns:dc="http://purl.org/dc/elements/1.1/"
   xmlns:cc="http://creativecommons.org/ns#"
   xmlns:rdf="http://www.w3.org/1999/02/22-rdf-syntax-ns#"
   xmlns:svg="http://www.w3.org/2000/svg"
   xmlns="http://www.w3.org/2000/svg"
   xmlns:sodipodi="http://sodipodi.sourceforge.net/DTD/sodipodi-0.dtd"
   xmlns:inkscape="http://www.inkscape.org/namespaces/inkscape"
   width="24"
   height="24"
   viewBox="0 0 24 24"
   fill="none"
   version="1.1"
   id="svg4"
   sodipodi:docname="Login.svg"
   inkscape:version="0.92.4 (5da689c313, 2019-01-14)">
  <metadata
     id="metadata10">
    <rdf:RDF>
      <cc:Work
         rdf:about="">
        <dc:format>image/svg+xml</dc:format>
        <dc:type
           rdf:resource="http://purl.org/dc/dcmitype/StillImage" />
        <dc:title></dc:title>
      </cc:Work>
    </rdf:RDF>
  </metadata>
  <defs
     id="defs8" />
  <sodipodi:namedview
     pagecolor="#ffffff"
     bordercolor="#666666"
     borderopacity="1"
     objecttolerance="10"
     gridtolerance="10"
     guidetolerance="10"
     inkscape:pageopacity="0"
     inkscape:pageshadow="2"
     inkscape:window-width="1920"
     inkscape:window-height="1000"
     id="namedview6"
     showgrid="false"
     inkscape:zoom="9.8333333"
     inkscape:cx="12"
     inkscape:cy="12"
     inkscape:window-x="-11"
     inkscape:window-y="-11"
     inkscape:window-maximized="1"
     inkscape:current-layer="svg4" />
  <path
     fill-rule="evenodd"
     clip-rule="evenodd"
     d="M11.8861 2H16.9254C19.445 2 21.5 4 21.5 6.44V17.56C21.5 20.01 19.445 22 16.9047 22H11.8758C9.35611 22 7.29083 20.01 7.29083 17.57V12.77H13.6932L12.041 14.37C11.7312 14.67 11.7312 15.16 12.041 15.46C12.1959 15.61 12.4024 15.68 12.6089 15.68C12.8051 15.68 13.0117 15.61 13.1666 15.46L16.1819 12.55C16.3368 12.41 16.4194 12.21 16.4194 12C16.4194 11.8 16.3368 11.6 16.1819 11.46L13.1666 8.55C12.8568 8.25 12.3508 8.25 12.041 8.55C11.7312 8.85 11.7312 9.34 12.041 9.64L13.6932 11.23H7.29083V6.45C7.29083 4 9.35611 2 11.8861 2ZM2.5 11.9999C2.5 11.5799 2.85523 11.2299 3.2815 11.2299H7.29052V12.7699H3.2815C2.85523 12.7699 2.5 12.4299 2.5 11.9999Z"
     fill="#130F26"
     id="path2"
     style="fill:#A0AABF" />
</svg>
