<?xml version="1.0" encoding="UTF-8" standalone="no"?>
<svg
   xmlns:dc="http://purl.org/dc/elements/1.1/"
   xmlns:cc="http://creativecommons.org/ns#"
   xmlns:rdf="http://www.w3.org/1999/02/22-rdf-syntax-ns#"
   xmlns:svg="http://www.w3.org/2000/svg"
   xmlns="http://www.w3.org/2000/svg"
   xmlns:sodipodi="http://sodipodi.sourceforge.net/DTD/sodipodi-0.dtd"
   xmlns:inkscape="http://www.inkscape.org/namespaces/inkscape"
   width="24"
   height="24"
   viewBox="0 0 24 24"
   fill="none"
   version="1.1"
   id="svg4"
   sodipodi:docname="Message.svg"
   inkscape:version="0.92.4 (5da689c313, 2019-01-14)">
  <metadata
     id="metadata10">
    <rdf:RDF>
      <cc:Work
         rdf:about="">
        <dc:format>image/svg+xml</dc:format>
        <dc:type
           rdf:resource="http://purl.org/dc/dcmitype/StillImage" />
        <dc:title></dc:title>
      </cc:Work>
    </rdf:RDF>
  </metadata>
  <defs
     id="defs8" />
  <sodipodi:namedview
     pagecolor="#ffffff"
     bordercolor="#666666"
     borderopacity="1"
     objecttolerance="10"
     gridtolerance="10"
     guidetolerance="10"
     inkscape:pageopacity="0"
     inkscape:pageshadow="2"
     inkscape:window-width="1920"
     inkscape:window-height="1000"
     id="namedview6"
     showgrid="false"
     inkscape:zoom="9.8333333"
     inkscape:cx="12"
     inkscape:cy="12"
     inkscape:window-x="-11"
     inkscape:window-y="-11"
     inkscape:window-maximized="1"
     inkscape:current-layer="svg4" />
  <path
     fill-rule="evenodd"
     clip-rule="evenodd"
     d="M16.9394 3C18.2804 3 19.5704 3.53 20.5194 4.481C21.4694 5.43 22.0004 6.71 22.0004 8.05V15.95C22.0004 18.74 19.7304 21 16.9394 21H7.0604C4.2694 21 2.0004 18.74 2.0004 15.95V8.05C2.0004 5.26 4.2594 3 7.0604 3H16.9394ZM18.5304 9.54L18.6104 9.46C18.8494 9.17 18.8494 8.75 18.5994 8.46C18.4604 8.311 18.2694 8.22 18.0704 8.2C17.8604 8.189 17.6604 8.26 17.5094 8.4L13.0004 12C12.4204 12.481 11.5894 12.481 11.0004 12L6.5004 8.4C6.1894 8.17 5.7594 8.2 5.5004 8.47C5.2304 8.74 5.2004 9.17 5.4294 9.47L5.5604 9.6L10.1104 13.15C10.6704 13.59 11.3494 13.83 12.0604 13.83C12.7694 13.83 13.4604 13.59 14.0194 13.15L18.5304 9.54Z"
     fill="#130F26"
     id="path2"
     style="fill:#A0AABF" />
</svg>
