<svg width="24" height="24" viewBox="0 0 24 24" fill="none" xmlns="http://www.w3.org/2000/svg">
<path fill-rule="evenodd" clip-rule="evenodd" d="M15.0402 4.05126C16.0502 4.45326 16.3592 5.85326 16.7722 6.30326C17.1852 6.75326 17.7762 6.90626 18.1032 6.90626C19.8412 6.90626 21.2502 8.31526 21.2502 10.0523V15.8473C21.2502 18.1773 19.3602 20.0673 17.0302 20.0673H6.97018C4.63918 20.0673 2.75018 18.1773 2.75018 15.8473V10.0523C2.75018 8.31526 4.15918 6.90626 5.89718 6.90626C6.22318 6.90626 6.81418 6.75326 7.22818 6.30326C7.64118 5.85326 7.94918 4.45326 8.95918 4.05126C9.97018 3.64926 14.0302 3.64926 15.0402 4.05126Z" stroke="#130F26" stroke-width="1.5" stroke-linecap="round" stroke-linejoin="round"/>
<path opacity="0.4" d="M17.4954 9.69995H17.5044" stroke="#130F26" stroke-width="2" stroke-linecap="round" stroke-linejoin="round"/>
<path opacity="0.4" fill-rule="evenodd" clip-rule="evenodd" d="M15.1789 13.3279C15.1789 11.5719 13.7559 10.1489 11.9999 10.1489C10.2439 10.1489 8.82086 11.5719 8.82086 13.3279C8.82086 15.0839 10.2439 16.5069 11.9999 16.5069C13.7559 16.5069 15.1789 15.0839 15.1789 13.3279Z" stroke="#130F26" stroke-width="1.5" stroke-linecap="round" stroke-linejoin="round"/>
</svg>
