<svg width="24" height="24" viewBox="0 0 24 24" fill="none" xmlns="http://www.w3.org/2000/svg">
<path fill-rule="evenodd" clip-rule="evenodd" d="M17.2779 13.8891C17.9526 13.8891 18.519 14.446 18.4158 15.1123C17.8105 19.0323 14.4547 21.9428 10.4074 21.9428C5.92948 21.9428 2.3 18.3134 2.3 13.8365C2.3 10.1481 5.10211 6.7123 8.25684 5.93546C8.93474 5.76809 9.62948 6.24493 9.62948 6.94283C9.62948 11.6712 9.78842 12.8944 10.6863 13.5597C11.5842 14.2249 12.64 13.8891 17.2779 13.8891Z" stroke="#130F26" stroke-width="1.5" stroke-linecap="round" stroke-linejoin="round"/>
<path opacity="0.4" fill-rule="evenodd" clip-rule="evenodd" d="M21.6925 9.95157C21.7462 6.91368 18.0146 2.01684 13.4673 2.10105C13.1136 2.10736 12.8304 2.4021 12.8146 2.75473C12.6999 5.25263 12.8546 8.48947 12.941 9.95684C12.9673 10.4137 13.3262 10.7726 13.782 10.7989C15.2904 10.8853 18.6452 11.0032 21.1073 10.6305C21.442 10.58 21.6873 10.2895 21.6925 9.95157Z" stroke="#130F26" stroke-width="1.5" stroke-linecap="round" stroke-linejoin="round"/>
</svg>
