<svg width="24" height="24" viewBox="0 0 24 24" fill="none" xmlns="http://www.w3.org/2000/svg">
<path fill-rule="evenodd" clip-rule="evenodd" d="M21.21 7.89924V16.0502C21.21 19.0702 19.32 21.2002 16.3 21.2002H7.65C4.63 21.2002 2.75 19.0702 2.75 16.0502V7.89924C2.75 4.87924 4.64 2.75024 7.65 2.75024H16.3C19.32 2.75024 21.21 4.87924 21.21 7.89924Z" stroke="#130F26" stroke-width="1.5" stroke-linecap="round" stroke-linejoin="round"/>
<path opacity="0.4" d="M5.28131 16.4309L6.80931 14.8179C7.34031 14.2549 8.22531 14.2279 8.78931 14.7579C8.80631 14.7749 9.72631 15.7099 9.72631 15.7099C10.2813 16.2749 11.1883 16.2839 11.7533 15.7299C11.7903 15.6939 14.0873 12.9079 14.0873 12.9079C14.6793 12.1889 15.7423 12.0859 16.4623 12.6789C16.5103 12.7189 18.6803 14.9459 18.6803 14.9459" stroke="#130F26" stroke-width="1.5" stroke-linecap="round" stroke-linejoin="round"/>
<path opacity="0.4" fill-rule="evenodd" clip-rule="evenodd" d="M10.3126 9.13315C10.3126 10.1022 9.52763 10.8872 8.55863 10.8872C7.58963 10.8872 6.80463 10.1022 6.80463 9.13315C6.80463 8.16415 7.58963 7.37915 8.55863 7.37915C9.52763 7.38015 10.3126 8.16415 10.3126 9.13315Z" stroke="#130F26" stroke-width="1.5" stroke-linecap="round" stroke-linejoin="round"/>
</svg>
