<svg width="24" height="24" viewBox="0 0 24 24" fill="none" xmlns="http://www.w3.org/2000/svg">
<path fill-rule="evenodd" clip-rule="evenodd" d="M16.2968 15.5383C16.3777 17.3704 14.8991 18.9196 12.9946 18.9975C12.8543 19.0034 6.01526 18.9896 6.01526 18.9896C4.11992 19.1335 2.4611 17.7715 2.31161 15.9463C2.30034 15.8103 2.30341 8.47219 2.30341 8.47219C2.21945 6.63815 3.696 5.08499 5.60159 5.00418C5.74392 4.99728 12.5737 5.01009 12.5737 5.01009C14.4783 4.86818 16.1422 6.24001 16.2897 8.07405C16.2999 8.2061 16.2968 15.5383 16.2968 15.5383Z" stroke="#130F26" stroke-width="1.5" stroke-linecap="round" stroke-linejoin="round"/>
<path opacity="0.4" d="M16.3 9.97984L19.593 7.28484C20.409 6.61684 21.633 7.19884 21.632 8.25184L21.62 15.6008C21.619 16.6538 20.394 17.2308 19.58 16.5628L16.3 13.8678" stroke="#130F26" stroke-width="1.5" stroke-linecap="round" stroke-linejoin="round"/>
</svg>
