<svg width="24" height="24" viewBox="0 0 24 24" fill="none" xmlns="http://www.w3.org/2000/svg">
<path d="M6.09479 16.6501C5.85979 16.5771 5.64679 16.4691 5.45979 16.3091C4.69479 15.6561 4.75079 13.9121 4.75079 12.6331C4.75079 11.3551 4.69479 9.61007 5.45979 8.95807C6.16879 8.35107 6.67279 8.51007 7.96979 8.40707C9.26579 8.30407 12.0088 4.34907 14.1258 5.59907C14.6108 5.99307 14.8958 6.58107 15.0638 7.48607" stroke="#130F26" stroke-width="1.5" stroke-linecap="round" stroke-linejoin="round"/>
<path d="M15.2833 14.6676C15.2463 17.5406 15.0213 18.9396 14.1263 19.6676C13.1463 20.2466 12.0363 19.7146 10.9913 18.9586" stroke="#130F26" stroke-width="1.5" stroke-linecap="round" stroke-linejoin="round"/>
<path opacity="0.4" d="M4.75159 20.7496L8.46459 17.0366L15.2836 10.2166L20.7506 4.74963" stroke="#130F26" stroke-width="1.5" stroke-linecap="round" stroke-linejoin="round"/>
</svg>
