<svg width="24" height="24" viewBox="0 0 24 24" fill="none" xmlns="http://www.w3.org/2000/svg">
<path d="M17.8017 5H14.0776C13.8924 5 13.7148 5.07357 13.5838 5.20452C13.4529 5.33547 13.3793 5.51308 13.3793 5.69828C13.3793 5.88347 13.4529 6.06108 13.5838 6.19203C13.7148 6.32298 13.8924 6.39655 14.0776 6.39655H16.1159L9.42242 13.0901C9.29205 13.2212 9.21899 13.3986 9.21924 13.5834C9.21949 13.7683 9.29304 13.9455 9.42376 14.0762C9.55448 14.207 9.7317 14.2805 9.91656 14.2808C10.1014 14.281 10.2789 14.2079 10.4099 14.0776L17.1035 7.38406V9.42241C17.1035 9.60761 17.177 9.78522 17.308 9.91617C17.4389 10.0471 17.6165 10.1207 17.8017 10.1207C17.9869 10.1207 18.1645 10.0471 18.2955 9.91617C18.4264 9.78522 18.5 9.60761 18.5 9.42241V5.69828C18.5 5.51308 18.4264 5.33547 18.2955 5.20452C18.1645 5.07357 17.9869 5 17.8017 5Z" fill="white"/>
<path d="M17.8017 11.5172C17.6165 11.5172 17.4389 11.5908 17.308 11.7218C17.177 11.8527 17.1034 12.0303 17.1034 12.2155V17.1034H6.39655V6.39655H11.2845C11.4697 6.39655 11.6473 6.32298 11.7782 6.19203C11.9092 6.06108 11.9828 5.88347 11.9828 5.69828C11.9828 5.51308 11.9092 5.33547 11.7782 5.20452C11.6473 5.07357 11.4697 5 11.2845 5H5.69828C5.51308 5 5.33547 5.07357 5.20452 5.20452C5.07357 5.33547 5 5.51308 5 5.69828V17.8017C5 17.9869 5.07357 18.1645 5.20452 18.2955C5.33547 18.4264 5.51308 18.5 5.69828 18.5H17.8017C17.9869 18.5 18.1645 18.4264 18.2955 18.2955C18.4264 18.1645 18.5 17.9869 18.5 17.8017V12.2155C18.5 12.0303 18.4264 11.8527 18.2955 11.7218C18.1645 11.5908 17.9869 11.5172 17.8017 11.5172Z" fill="white"/>
</svg>
