<svg width="24" height="24" viewBox="0 0 24 24" fill="none" xmlns="http://www.w3.org/2000/svg">
<path d="M18.5 5.51923V8.63462C18.5 8.92136 18.2675 9.15385 17.9808 9.15385C17.694 9.15385 17.4615 8.92136 17.4615 8.63462V6.77265L14.194 10.0402C14.0926 10.1416 13.9597 10.1923 13.8269 10.1923C13.6941 10.1923 13.5612 10.1416 13.4598 10.0402C13.2569 9.83728 13.2569 9.50874 13.4598 9.30598L16.7273 6.03846H14.8654C14.5786 6.03846 14.3462 5.80598 14.3462 5.51923C14.3462 5.23249 14.5786 5 14.8654 5H17.9808C18.2675 5 18.5 5.23249 18.5 5.51923V5.51923ZM10.0402 9.30598L6.77265 6.03846H8.63462C8.92136 6.03846 9.15385 5.80598 9.15385 5.51923C9.15385 5.23249 8.92136 5 8.63462 5H5.51923C5.23249 5 5 5.23249 5 5.51923V8.63462C5 8.92136 5.23249 9.15385 5.51923 9.15385C5.80598 9.15385 6.03846 8.92136 6.03846 8.63462V6.77265L9.30598 10.0402C9.40736 10.1416 9.54028 10.1923 9.67308 10.1923C9.80587 10.1923 9.93879 10.1416 10.0402 10.0402C10.2431 9.83741 10.2431 9.50874 10.0402 9.30598V9.30598ZM17.9808 14.3462C17.694 14.3462 17.4615 14.5786 17.4615 14.8654V16.7273L14.194 13.4598C13.9911 13.2569 13.6626 13.2569 13.4598 13.4598C13.2571 13.6627 13.2569 13.9913 13.4598 14.194L16.7273 17.4615H14.8654C14.5786 17.4615 14.3462 17.694 14.3462 17.9808C14.3462 18.2675 14.5786 18.5 14.8654 18.5H17.9808C18.2675 18.5 18.5 18.2675 18.5 17.9808V14.8654C18.5 14.5786 18.2675 14.3462 17.9808 14.3462ZM10.0402 13.4598C9.83728 13.2569 9.50874 13.2569 9.30598 13.4598L6.03846 16.7273V14.8654C6.03846 14.5786 5.80598 14.3462 5.51923 14.3462C5.23249 14.3462 5 14.5786 5 14.8654V17.9808C5 18.2675 5.23249 18.5 5.51923 18.5H8.63462C8.92136 18.5 9.15385 18.2675 9.15385 17.9808C9.15385 17.694 8.92136 17.4615 8.63462 17.4615H6.77265L10.0402 14.194C10.2431 13.9913 10.2431 13.6626 10.0402 13.4598Z" fill="white"/>
</svg>
