<svg width="24" height="24" viewBox="0 0 24 24" fill="none" xmlns="http://www.w3.org/2000/svg">
<path d="M20.5 12C20.5 12.828 19.716 13.5 18.75 13.5H4.75C3.784 13.5 3 12.828 3 12C3 11.172 3.784 10.5 4.75 10.5H18.75C19.716 10.5 20.5 11.172 20.5 12Z" fill="white"/>
<path d="M20.5 6C20.5 6.828 19.716 7.5 18.75 7.5H4.75C3.784 7.5 3 6.828 3 6C3 5.172 3.784 4.5 4.75 4.5H18.75C19.716 4.5 20.5 5.172 20.5 6Z" fill="white"/>
<path d="M20.5 18C20.5 18.828 19.716 19.5 18.75 19.5H4.75C3.784 19.5 3 18.828 3 18C3 17.172 3.784 16.5 4.75 16.5H18.75C19.716 16.5 20.5 17.172 20.5 18Z" fill="white"/>
</svg>
