<svg width="24" height="24" viewBox="0 0 24 24" fill="none" xmlns="http://www.w3.org/2000/svg">
<path fill-rule="evenodd" clip-rule="evenodd" d="M4.72727 4H19.2727C19.996 4 20.6897 4.28734 21.2012 4.7988C21.7127 5.31026 22 6.00395 22 6.72727V17.6363C22 18.3597 21.7127 19.0534 21.2012 19.5648C20.6897 20.0763 19.996 20.3636 19.2727 20.3636H4.72727C4.00396 20.3636 3.31026 20.0763 2.7988 19.5648C2.28734 19.0534 2 18.3597 2 17.6363V6.72727C2 6.00395 2.28734 5.31026 2.7988 4.7988C3.31026 4.28734 4.00396 4 4.72727 4ZM12.0001 7.63655C12.2411 7.63655 12.4723 7.73229 12.6428 7.90272L16.2792 11.5391C16.4448 11.7105 16.5364 11.9402 16.5343 12.1785C16.5322 12.4169 16.4366 12.6449 16.2681 12.8135C16.0995 12.982 15.8715 13.0776 15.6332 13.0797C15.3948 13.0818 15.1652 12.9901 14.9937 12.8245L12.9092 10.74V15.8182C12.9092 16.0593 12.8134 16.2905 12.6429 16.461C12.4724 16.6315 12.2412 16.7273 12.0001 16.7273C11.759 16.7273 11.5277 16.6315 11.3572 16.461C11.1868 16.2905 11.091 16.0593 11.091 15.8182V10.74L9.00643 12.8245C8.92257 12.9114 8.82226 12.9806 8.71135 13.0283C8.60043 13.0759 8.48114 13.101 8.36043 13.102C8.23973 13.1031 8.12002 13.0801 8.00829 13.0344C7.89657 12.9887 7.79507 12.9212 7.70971 12.8358C7.62435 12.7505 7.55685 12.649 7.51114 12.5372C7.46543 12.4255 7.44243 12.3058 7.44348 12.1851C7.44453 12.0644 7.46961 11.9451 7.51725 11.8342C7.5649 11.7233 7.63415 11.6229 7.72098 11.5391L11.3573 7.90272C11.5278 7.73229 11.759 7.63655 12.0001 7.63655Z" fill="white"/>
</svg>
