<svg width="24" height="24" viewBox="0 0 24 24" fill="none" xmlns="http://www.w3.org/2000/svg">
<path fill-rule="evenodd" clip-rule="evenodd" d="M12 21.9999C17.5228 21.9999 22 17.5227 22 11.9999C22 6.47705 17.5228 1.9999 12 1.9999C6.47715 1.9999 2 6.47705 2 11.9999C2 17.5227 6.47715 21.9999 12 21.9999ZM11.4301 14.99L16.1801 10.24C16.5201 9.90002 16.5201 9.35002 16.1801 9.00002C15.8401 8.66002 15.2801 8.66002 14.9401 9.00002L10.8101 13.13L9.06006 11.38C8.72006 11.04 8.16006 11.04 7.82006 11.38C7.48006 11.72 7.48006 12.27 7.82006 12.62L10.2001 14.99C10.3701 15.16 10.5901 15.24 10.8101 15.24C11.0401 15.24 11.2601 15.16 11.4301 14.99Z" fill="white"/>
</svg>
