<svg width="24" height="24" viewBox="0 0 24 24" fill="none" xmlns="http://www.w3.org/2000/svg">
<path d="M18.354 5.14581C18.1596 4.9514 17.8448 4.9514 17.6505 5.14581L14.5195 8.27681V6.49264C14.5195 6.21788 14.2967 5.9951 14.022 5.9951C13.7472 5.9951 13.5244 6.21788 13.5244 6.49264V9.47786C13.5244 9.75263 13.7472 9.9754 14.022 9.9754H17.0072C17.2819 9.9754 17.5047 9.75263 17.5047 9.47786C17.5047 9.2031 17.2819 8.98032 17.0072 8.98032H15.223L18.354 5.84933C18.5484 5.65504 18.5484 5.3401 18.354 5.14581Z" fill="white"/>
<path d="M9.47781 5.9951C9.20305 5.9951 8.98028 6.21788 8.98028 6.49264V8.27681L5.84928 5.14581C5.65487 4.9514 5.34005 4.9514 5.14576 5.14581C4.95147 5.34022 4.95135 5.65504 5.14576 5.84933L8.27676 8.98032H6.49259C6.21783 8.98032 5.99506 9.2031 5.99506 9.47786C5.99506 9.75263 6.21783 9.9754 6.49259 9.9754H9.47781C9.75258 9.9754 9.97535 9.75263 9.97535 9.47786V6.49264C9.97535 6.21788 9.75258 5.9951 9.47781 5.9951Z" fill="white"/>
<path d="M9.9754 14.3586V17.3438C9.9754 17.6186 9.75263 17.8414 9.47786 17.8414C9.2031 17.8414 8.98032 17.6186 8.98032 17.3438V15.5597L5.84933 18.6907C5.75218 18.7878 5.62481 18.8364 5.49757 18.8364C5.37032 18.8364 5.24295 18.7878 5.14581 18.6907C4.9514 18.4963 4.9514 18.1814 5.14581 17.9872L8.27681 14.8562H6.49264C6.21788 14.8562 5.9951 14.6334 5.9951 14.3586C5.9951 14.0839 6.21788 13.8611 6.49264 13.8611H9.47786C9.75263 13.8611 9.9754 14.0839 9.9754 14.3586Z" fill="white"/>
<path d="M18.354 17.9872L15.223 14.8562H17.0072C17.2819 14.8562 17.5047 14.6334 17.5047 14.3586C17.5047 14.0839 17.2819 13.8611 17.0072 13.8611H14.022C13.7472 13.8611 13.5244 14.0839 13.5244 14.3586V17.3438C13.5244 17.6186 13.7472 17.8414 14.022 17.8414C14.2967 17.8414 14.5195 17.6186 14.5195 17.3438V15.5597L17.6505 18.6907C17.7476 18.7878 17.875 18.8364 18.0022 18.8364C18.1295 18.8364 18.2569 18.7878 18.354 18.6907C18.5484 18.4964 18.5484 18.1814 18.354 17.9872Z" fill="white"/>
</svg>
