<svg width="24" height="24" viewBox="0 0 24 24" fill="none" xmlns="http://www.w3.org/2000/svg">
<path d="M10.3333 8.16854V4.62521C10.3333 4.37437 10.1825 4.14771 9.95167 4.04937C9.72167 3.95187 9.4525 4.00104 9.27333 4.17687L2.19 11.0519C2.06833 11.1694 2 11.331 2 11.5002C2 11.6694 2.06833 11.831 2.19 11.9485L9.27333 18.8235C9.45417 18.9985 9.7225 19.0477 9.95167 18.951C10.1825 18.8527 10.3333 18.626 10.3333 18.3752V14.8335H11.515C15.3783 14.8335 18.94 16.9335 20.8092 20.3102L20.8267 20.3419C20.9383 20.5452 21.15 20.6669 21.375 20.6669C21.4267 20.6669 21.4783 20.661 21.53 20.6477C21.8067 20.5769 22 20.3277 22 20.0419C22 13.5635 16.7858 8.2802 10.3333 8.16854V8.16854Z" fill="white"/>
</svg>
