<svg width="24" height="24" viewBox="0 0 24 24" fill="none" xmlns="http://www.w3.org/2000/svg">
<path d="M12 2C10.0222 2 8.08879 2.58649 6.4443 3.6853C4.79981 4.78412 3.51809 6.3459 2.76121 8.17316C2.00433 10.0004 1.8063 12.0111 2.19215 13.9509C2.578 15.8907 3.53041 17.6725 4.92894 19.0711C6.32746 20.4696 8.10929 21.422 10.0491 21.8078C11.9889 22.1937 13.9996 21.9957 15.8268 21.2388C17.6541 20.4819 19.2159 19.2002 20.3147 17.5557C21.4135 15.9112 22 13.9778 22 12C22 9.34783 20.9464 6.80429 19.0711 4.92893C17.1957 3.05357 14.6522 2 12 2V2ZM15.6605 8.40658C15.9144 8.40632 16.1626 8.48137 16.3738 8.62224C16.5849 8.7631 16.7496 8.96345 16.8468 9.19792C16.9441 9.43239 16.9696 9.69045 16.9201 9.93943C16.8707 10.1884 16.7485 10.4171 16.569 10.5966C16.3895 10.7761 16.1608 10.8983 15.9118 10.9478C15.6628 10.9972 15.4048 10.9717 15.1703 10.8745C14.9358 10.7772 14.7355 10.6126 14.5946 10.4014C14.4537 10.1902 14.3787 9.942 14.3789 9.68816C14.3789 9.34826 14.514 9.02229 14.7543 8.78194C14.9947 8.5416 15.3206 8.40658 15.6605 8.40658ZM8.33948 8.40658C8.59332 8.40632 8.84154 8.48137 9.05271 8.62224C9.26388 8.7631 9.42852 8.96345 9.52578 9.19792C9.62304 9.43239 9.64856 9.69045 9.5991 9.93943C9.54964 10.1884 9.42743 10.4171 9.24793 10.5966C9.06844 10.7761 8.83973 10.8983 8.59075 10.9478C8.34177 10.9972 8.08371 10.9717 7.84924 10.8745C7.61477 10.7772 7.41442 10.6126 7.27356 10.4014C7.13269 10.1902 7.05764 9.942 7.0579 9.68816C7.05825 9.34837 7.19338 9.02259 7.43365 8.78233C7.67392 8.54206 7.99969 8.40693 8.33948 8.40658ZM17.6316 14.55C17.2118 16.946 14.85 18.6079 12 18.6079C9.15 18.6079 6.78948 16.946 6.36974 14.55C6.36523 14.5257 6.36259 14.501 6.36185 14.4763C6.36185 14.1303 6.7829 13.9066 7.15132 14.0329C8.57237 14.5237 10.2303 14.7737 12.0013 14.7737C13.7724 14.7737 15.4303 14.5237 16.8513 14.0329C17.2184 13.9013 17.6408 14.1289 17.6408 14.4763C17.6396 14.5011 17.6366 14.5257 17.6316 14.55V14.55Z" fill="white"/>
</svg>
