<svg width="24" height="24" viewBox="0 0 24 24" fill="none" xmlns="http://www.w3.org/2000/svg">
<path d="M12.9146 2.63438C13.7348 1.81402 15.0967 1.76344 15.987 2.63438L21.3637 8.01253C22.2121 8.86118 22.2121 10.2371 21.3637 11.0858C20.5436 11.9061 19.1817 11.9664 18.2913 11.0858L17.9073 10.7014L14.7012 13.9084C15.6684 16.5268 15.0209 19.758 12.9146 21.8421C12.6873 22.067 12.3373 22.0377 12.1465 21.8421L7.53774 17.2319L4.08152 20.6896C3.86942 20.9018 3.52553 20.9018 3.31342 20.6896C3.11764 20.4938 3.08323 20.1535 3.31342 19.9213L6.76976 16.4637L2.16128 11.8541C1.96549 11.6582 1.92781 11.3193 2.16128 11.0858C4.21629 9.03019 7.33765 8.29447 10.0923 9.29813L13.2983 6.09118L12.9146 5.70761C12.0392 4.82742 12.0945 3.45474 12.9146 2.63438V2.63438Z" fill="white"/>
</svg>
