<svg width="24" height="24" viewBox="0 0 24 24" fill="none" xmlns="http://www.w3.org/2000/svg">
<path d="M21.826 12.7237L20.6385 11.5634C21.494 10.5204 21.9628 9.23122 21.9628 7.85993C21.9628 4.62537 19.3376 2 16.1028 2C12.8681 2 10.2429 4.62537 10.2429 7.85993C10.2429 11.0946 12.8681 13.7199 16.1028 13.7199H21.4158C21.6502 13.7199 21.8611 13.5793 21.955 13.3567C22.0487 13.1339 22.0018 12.8879 21.826 12.7237V12.7237ZM18.3882 9.87581C18.2593 10.1337 17.9467 10.2938 17.6029 10.1453L16.7357 9.71176C16.4193 10.0165 15.9974 10.2039 15.5169 10.2039C14.5442 10.2039 13.7589 9.41877 13.7589 8.44593V6.10195C13.7589 5.12927 14.5442 4.34397 15.5169 4.34397C16.4895 4.34397 17.2748 5.12927 17.2748 6.10195V8.44593C17.2748 8.51628 17.2748 8.58663 17.2513 8.65698L18.1187 9.09052C18.4117 9.24297 18.5289 9.59457 18.3882 9.87581Z" fill="white"/>
<path d="M15.5169 5.51596C15.1888 5.51596 14.9309 5.77386 14.9309 6.10195V8.44593C14.9309 8.77417 15.1888 9.03192 15.5169 9.03192C15.8412 9.03192 16.1029 8.78196 16.1029 8.44593V6.10195C16.1029 5.77386 15.845 5.51596 15.5169 5.51596Z" fill="white"/>
<path d="M9.17644 9.03192H2.58599C2.2579 9.03192 2 9.28982 2 9.61791V18.9938C2 19.3221 2.2579 19.5798 2.58599 19.5798H4.38304V21.4159C4.38304 21.8418 4.83627 22.1661 5.29713 21.9082L8.66079 19.5798H14.3449C14.673 19.5798 14.9309 19.3221 14.9309 18.9938V14.7864C11.9892 14.2943 9.66873 11.9736 9.17644 9.03192V9.03192ZM11.0869 17.1772C10.7431 17.3257 10.4305 17.1656 10.3016 16.9077L9.87963 16.0638H7.09036L6.66841 16.9077C6.51612 17.2007 6.16452 17.3179 5.88312 17.1772C5.59013 17.0249 5.47293 16.6733 5.61363 16.3921C5.95347 15.7122 7.9576 11.7041 7.9576 11.6924C8.1685 11.3057 8.81309 11.3057 9.01239 11.7041C9.09449 11.8682 11.3564 16.4038 11.3564 16.4038C11.4971 16.6851 11.3799 17.0249 11.0869 17.1772Z" fill="white"/>
<path d="M7.67627 14.8919H9.29359L8.48493 13.2746L7.67627 14.8919Z" fill="white"/>
</svg>
