<svg width="24" height="24" viewBox="0 0 24 24" fill="none" xmlns="http://www.w3.org/2000/svg">
<path d="M6.1984 19H9.92254C10.1077 19 10.2853 18.9264 10.4163 18.7955C10.5472 18.6645 10.6208 18.4869 10.6208 18.3017C10.6208 18.1165 10.5472 17.9389 10.4163 17.808C10.2853 17.677 10.1077 17.6034 9.92254 17.6034H7.88418L14.5777 10.9099C14.7081 10.7788 14.7811 10.6014 14.7809 10.4166C14.7806 10.2317 14.7071 10.0545 14.5764 9.92375C14.4456 9.79304 14.2684 9.71949 14.0836 9.71923C13.8987 9.71898 13.7213 9.79205 13.5902 9.92241L6.89667 16.6159V14.5776C6.89667 14.3924 6.8231 14.2148 6.69215 14.0838C6.5612 13.9529 6.38359 13.8793 6.1984 13.8793C6.0132 13.8793 5.83559 13.9529 5.70464 14.0838C5.57369 14.2148 5.50012 14.3924 5.50012 14.5776V18.3017C5.50012 18.4869 5.57369 18.6645 5.70464 18.7955C5.83559 18.9264 6.0132 19 6.1984 19Z" fill="white"/>
<path d="M6.19828 12.4828C6.38347 12.4828 6.56108 12.4092 6.69203 12.2782C6.82298 12.1473 6.89655 11.9697 6.89655 11.7845V6.89655H17.6034V17.6034H12.7155C12.5303 17.6034 12.3527 17.677 12.2218 17.808C12.0908 17.9389 12.0172 18.1165 12.0172 18.3017C12.0172 18.4869 12.0908 18.6645 12.2218 18.7955C12.3527 18.9264 12.5303 19 12.7155 19H18.3017C18.4869 19 18.6645 18.9264 18.7955 18.7955C18.9264 18.6645 19 18.4869 19 18.3017V6.19828C19 6.01308 18.9264 5.83547 18.7955 5.70452C18.6645 5.57357 18.4869 5.5 18.3017 5.5H6.19828C6.01308 5.5 5.83547 5.57357 5.70452 5.70452C5.57357 5.83547 5.5 6.01308 5.5 6.19828V11.7845C5.5 11.9697 5.57357 12.1473 5.70452 12.2782C5.83547 12.4092 6.01308 12.4828 6.19828 12.4828Z" fill="white"/>
</svg>
