<?xml version="1.0" encoding="UTF-8" standalone="no"?>
<svg
   xmlns:dc="http://purl.org/dc/elements/1.1/"
   xmlns:cc="http://creativecommons.org/ns#"
   xmlns:rdf="http://www.w3.org/1999/02/22-rdf-syntax-ns#"
   xmlns:svg="http://www.w3.org/2000/svg"
   xmlns="http://www.w3.org/2000/svg"
   xmlns:sodipodi="http://sodipodi.sourceforge.net/DTD/sodipodi-0.dtd"
   xmlns:inkscape="http://www.inkscape.org/namespaces/inkscape"
   width="24"
   height="24"
   viewBox="0 0 24 24"
   fill="none"
   version="1.1"
   id="svg4"
   sodipodi:docname="Chat.svg"
   inkscape:version="0.92.4 (5da689c313, 2019-01-14)">
  <metadata
     id="metadata10">
    <rdf:RDF>
      <cc:Work
         rdf:about="">
        <dc:format>image/svg+xml</dc:format>
        <dc:type
           rdf:resource="http://purl.org/dc/dcmitype/StillImage" />
        <dc:title></dc:title>
      </cc:Work>
    </rdf:RDF>
  </metadata>
  <defs
     id="defs8" />
  <sodipodi:namedview
     pagecolor="#ffffff"
     bordercolor="#666666"
     borderopacity="1"
     objecttolerance="10"
     gridtolerance="10"
     guidetolerance="10"
     inkscape:pageopacity="0"
     inkscape:pageshadow="2"
     inkscape:window-width="1920"
     inkscape:window-height="1000"
     id="namedview6"
     showgrid="false"
     inkscape:zoom="9.8333333"
     inkscape:cx="12"
     inkscape:cy="12"
     inkscape:window-x="-11"
     inkscape:window-y="-11"
     inkscape:window-maximized="1"
     inkscape:current-layer="svg4" />
  <path
     fill-rule="evenodd"
     clip-rule="evenodd"
     d="M2 12.015C2 6.74712 6.21 2 12.02 2C17.7 2 22 6.65699 22 11.985C22 18.1642 16.96 22 12 22C10.36 22 8.54 21.5593 7.08 20.698C6.57 20.3876 6.14 20.1572 5.59 20.3375L3.57 20.9384C3.06 21.0986 2.6 20.698 2.75 20.1572L3.42 17.9139C3.53 17.6034 3.51 17.2729 3.35 17.0125C2.49 15.4301 2 13.6975 2 12.015ZM10.7 12.015C10.7 12.7261 11.27 13.2969 11.98 13.307C12.69 13.307 13.26 12.7261 13.26 12.025C13.26 11.314 12.69 10.7431 11.98 10.7431C11.28 10.7331 10.7 11.314 10.7 12.015ZM15.31 12.025C15.31 12.7261 15.88 13.307 16.59 13.307C17.3 13.307 17.87 12.7261 17.87 12.025C17.87 11.314 17.3 10.7431 16.59 10.7431C15.88 10.7431 15.31 11.314 15.31 12.025ZM7.37 13.307C6.67 13.307 6.09 12.7261 6.09 12.025C6.09 11.314 6.66 10.7431 7.37 10.7431C8.08 10.7431 8.65 11.314 8.65 12.025C8.65 12.7261 8.08 13.2969 7.37 13.307Z"
     fill="#130F26"
     id="path2"
     style="fill:#ffffff" />
</svg>
