<?xml version="1.0" encoding="UTF-8" standalone="no"?>
<svg
   xmlns:dc="http://purl.org/dc/elements/1.1/"
   xmlns:cc="http://creativecommons.org/ns#"
   xmlns:rdf="http://www.w3.org/1999/02/22-rdf-syntax-ns#"
   xmlns:svg="http://www.w3.org/2000/svg"
   xmlns="http://www.w3.org/2000/svg"
   xmlns:sodipodi="http://sodipodi.sourceforge.net/DTD/sodipodi-0.dtd"
   xmlns:inkscape="http://www.inkscape.org/namespaces/inkscape"
   width="24"
   height="24"
   viewBox="0 0 24 24"
   fill="none"
   version="1.1"
   id="svg4"
   sodipodi:docname="ico-stage.svg"
   inkscape:version="0.92.4 (5da689c313, 2019-01-14)">
  <metadata
     id="metadata10">
    <rdf:RDF>
      <cc:Work
         rdf:about="">
        <dc:format>image/svg+xml</dc:format>
        <dc:type
           rdf:resource="http://purl.org/dc/dcmitype/StillImage" />
        <dc:title></dc:title>
      </cc:Work>
    </rdf:RDF>
  </metadata>
  <defs
     id="defs8" />
  <sodipodi:namedview
     pagecolor="#ffffff"
     bordercolor="#666666"
     borderopacity="1"
     objecttolerance="10"
     gridtolerance="10"
     guidetolerance="10"
     inkscape:pageopacity="0"
     inkscape:pageshadow="2"
     inkscape:window-width="1920"
     inkscape:window-height="1000"
     id="namedview6"
     showgrid="false"
     inkscape:zoom="9.8333333"
     inkscape:cx="12"
     inkscape:cy="12"
     inkscape:window-x="-11"
     inkscape:window-y="-11"
     inkscape:window-maximized="1"
     inkscape:current-layer="svg4" />
  <path
     d="M4.33333 18.3333H7L6.33334 20.4167C6.08334 21.1667 6.66667 22 7.5 22C8 22 8.5 21.6667 8.66667 21.1667L9.58334 18.3333H13.5833L14.5 21.1667C14.6667 21.6667 15.1667 22 15.6667 22C16.5 22 17.0833 21.1667 16.8333 20.4167L16.1667 18.3333H19C20.25 18.3333 21.3333 17.25 21.3333 16V6.75C21.3333 5.5 20.25 4.41667 19 4.41667H14.1667C14.1667 3.08333 13.0833 2 11.75 2C10.4167 2 9.33334 3.08333 9.33334 4.41667H4.33333C3.08333 4.41667 2 5.5 2 6.75V16C2 17.3333 3.08333 18.3333 4.33333 18.3333ZM6.33334 12.5L9.5 9.16667C9.66667 9 9.91667 8.91667 10.1667 8.91667C10.4167 8.91667 10.6667 9.08333 10.75 9.25L12.75 11.8333L15.6667 9.16667C16 8.83333 16.5 8.83333 16.8333 9.25C17.1667 9.58333 17.1667 10.0833 16.75 10.4167L13.1667 13.75C13 13.9167 12.8333 14 12.5833 14H12.5C12.25 14 12.0833 13.8333 11.9167 13.6667L10 11.0833L7.5 13.6667C7.16667 14 6.66667 14 6.33334 13.6667C6.08334 13.4167 6 12.8333 6.33334 12.5Z"
     fill="#2E3A44"
     id="path2"
     style="fill:#A0AABF" />
</svg>
