<?xml version="1.0" encoding="UTF-8" standalone="no"?>
<svg
   xmlns:dc="http://purl.org/dc/elements/1.1/"
   xmlns:cc="http://creativecommons.org/ns#"
   xmlns:rdf="http://www.w3.org/1999/02/22-rdf-syntax-ns#"
   xmlns:svg="http://www.w3.org/2000/svg"
   xmlns="http://www.w3.org/2000/svg"
   xmlns:sodipodi="http://sodipodi.sourceforge.net/DTD/sodipodi-0.dtd"
   xmlns:inkscape="http://www.inkscape.org/namespaces/inkscape"
   width="24"
   height="24"
   viewBox="0 0 24 24"
   fill="none"
   version="1.1"
   id="svg14"
   sodipodi:docname="ico-live.svg"
   inkscape:version="0.92.4 (5da689c313, 2019-01-14)">
  <metadata
     id="metadata20">
    <rdf:RDF>
      <cc:Work
         rdf:about="">
        <dc:format>image/svg+xml</dc:format>
        <dc:type
           rdf:resource="http://purl.org/dc/dcmitype/StillImage" />
        <dc:title></dc:title>
      </cc:Work>
    </rdf:RDF>
  </metadata>
  <defs
     id="defs18" />
  <sodipodi:namedview
     pagecolor="#ffffff"
     bordercolor="#666666"
     borderopacity="1"
     objecttolerance="10"
     gridtolerance="10"
     guidetolerance="10"
     inkscape:pageopacity="0"
     inkscape:pageshadow="2"
     inkscape:window-width="1920"
     inkscape:window-height="1000"
     id="namedview16"
     showgrid="false"
     inkscape:zoom="9.8333333"
     inkscape:cx="12"
     inkscape:cy="12"
     inkscape:window-x="-11"
     inkscape:window-y="-11"
     inkscape:window-maximized="1"
     inkscape:current-layer="svg14" />
  <path
     d="M21.8906 11.3438H2.10937C0.946217 11.3438 0 12.29 0 13.4531V21.8906C0 23.0538 0.946217 24 2.10937 24H21.8906C23.0537 24 24 23.0538 24 21.8906V13.4531C24 12.29 23.0538 11.3438 21.8906 11.3438ZM6.37499 21.1875H3.56249C3.17385 21.1875 2.85937 20.873 2.85937 20.4844V14.8594C2.85937 14.4707 3.17385 14.1563 3.56249 14.1563C3.95113 14.1563 4.26562 14.4707 4.26562 14.8594V19.7812H6.37499C6.76363 19.7812 7.07811 20.0957 7.07811 20.4844C7.07811 20.873 6.76363 21.1875 6.37499 21.1875ZM9.89061 20.4844C9.89061 20.873 9.57612 21.1875 9.18748 21.1875C8.79884 21.1875 8.48436 20.873 8.48436 20.4844V14.8594C8.48436 14.4707 8.79884 14.1563 9.18748 14.1563C9.57612 14.1563 9.89061 14.4707 9.89061 14.8594V20.4844ZM15.4943 15.0297L14.0881 20.6547C14.0098 20.9678 13.729 21.1875 13.4062 21.1875C13.0835 21.1875 12.8027 20.9677 12.7244 20.6547L11.3181 15.0297C11.2234 14.6534 11.4527 14.2716 11.8297 14.1775C12.2053 14.08 12.5877 14.3121 12.6818 14.6891L13.4062 17.5854L14.1306 14.6891C14.224 14.3122 14.6058 14.0794 14.9828 14.1776C15.3597 14.2716 15.5891 14.6534 15.4943 15.0297ZM20.4375 16.9687C20.8261 16.9687 21.1406 17.2832 21.1406 17.6719C21.1406 18.0605 20.8261 18.375 20.4375 18.375H18.3281V19.7812H20.4375C20.8261 19.7812 21.1406 20.0957 21.1406 20.4844C21.1406 20.873 20.8261 21.1875 20.4375 21.1875H17.625C17.2363 21.1875 16.9218 20.873 16.9218 20.4844V14.8594C16.9218 14.4707 17.2363 14.1563 17.625 14.1563H20.4375C20.8261 14.1563 21.1406 14.4707 21.1406 14.8594C21.1406 15.248 20.8261 15.5625 20.4375 15.5625H18.3281V16.9687H20.4375Z"
     fill="#2E3A44"
     id="path2"
     style="fill:#A0AABF" />
  <path
     d="M5.81198 9.56293C3.76026 6.83008 3.76026 3.01371 5.81198 0.280858C6.04476 -0.028798 6.48627 -0.0926885 6.79663 0.140795C7.10699 0.374279 7.16947 0.815091 6.93669 1.12545C5.25787 3.36049 5.25787 6.48335 6.93669 8.71834C7.16947 9.0287 7.10699 9.46951 6.79663 9.703C6.48759 9.93484 6.04588 9.87475 5.81198 9.56293Z"
     fill="#2E3A44"
     id="path4"
     style="fill:#A0AABF" />
  <path
     d="M17.2036 9.703C16.8932 9.46956 16.8308 9.0287 17.0635 8.71834C18.7424 6.4833 18.7424 3.36045 17.0635 1.12545C16.8308 0.815091 16.8932 0.374279 17.2036 0.140795C17.514 -0.0919854 17.9562 -0.028798 18.1883 0.280858C20.24 3.01371 20.24 6.83008 18.1883 9.56293C17.9547 9.87428 17.5133 9.93521 17.2036 9.703Z"
     fill="#2E3A44"
     id="path6"
     style="fill:#A0AABF" />
  <path
     d="M8.33101 8.20338C6.65561 6.33297 6.65561 3.51087 8.33101 1.64042C8.59056 1.35134 9.0369 1.328 9.32392 1.58548C9.61299 1.84432 9.6377 2.28931 9.37885 2.57838C8.1827 3.9146 8.1827 5.92919 9.37885 7.26541C9.6377 7.55449 9.61299 7.99943 9.32392 8.25832C9.03582 8.51683 8.59014 8.4933 8.33101 8.20338Z"
     fill="#2E3A44"
     id="path8"
     style="fill:#A0AABF" />
  <path
     d="M14.6759 8.25831C14.3868 7.99947 14.3621 7.55448 14.621 7.26541C15.8171 5.92919 15.8171 3.9146 14.621 2.57838C14.3621 2.28931 14.3868 1.84437 14.6759 1.58548C14.9643 1.32729 15.4099 1.35064 15.6688 1.64042C17.3442 3.51082 17.3442 6.33292 15.6688 8.20337C15.4098 8.4932 14.9641 8.51687 14.6759 8.25831Z"
     fill="#2E3A44"
     id="path10"
     style="fill:#A0AABF" />
  <path
     d="M12 7.03127C10.8368 7.03127 9.89062 6.08505 9.89062 4.9219C9.89062 3.75874 10.8368 2.81252 12 2.81252C13.1632 2.81252 14.1094 3.75874 14.1094 4.9219C14.1094 6.08505 13.1632 7.03127 12 7.03127Z"
     fill="#2E3A44"
     id="path12"
     style="fill:#A0AABF" />
</svg>
