<?xml version="1.0" encoding="UTF-8" standalone="no"?>
<svg
   xmlns:dc="http://purl.org/dc/elements/1.1/"
   xmlns:cc="http://creativecommons.org/ns#"
   xmlns:rdf="http://www.w3.org/1999/02/22-rdf-syntax-ns#"
   xmlns:svg="http://www.w3.org/2000/svg"
   xmlns="http://www.w3.org/2000/svg"
   xmlns:sodipodi="http://sodipodi.sourceforge.net/DTD/sodipodi-0.dtd"
   xmlns:inkscape="http://www.inkscape.org/namespaces/inkscape"
   width="24"
   height="24"
   viewBox="0 0 24 24"
   fill="none"
   version="1.1"
   id="svg4"
   sodipodi:docname="ico-extension.svg"
   inkscape:version="0.92.4 (5da689c313, 2019-01-14)">
  <metadata
     id="metadata10">
    <rdf:RDF>
      <cc:Work
         rdf:about="">
        <dc:format>image/svg+xml</dc:format>
        <dc:type
           rdf:resource="http://purl.org/dc/dcmitype/StillImage" />
        <dc:title></dc:title>
      </cc:Work>
    </rdf:RDF>
  </metadata>
  <defs
     id="defs8" />
  <sodipodi:namedview
     pagecolor="#ffffff"
     bordercolor="#666666"
     borderopacity="1"
     objecttolerance="10"
     gridtolerance="10"
     guidetolerance="10"
     inkscape:pageopacity="0"
     inkscape:pageshadow="2"
     inkscape:window-width="1920"
     inkscape:window-height="1000"
     id="namedview6"
     showgrid="false"
     inkscape:zoom="9.8333333"
     inkscape:cx="12"
     inkscape:cy="12"
     inkscape:window-x="-11"
     inkscape:window-y="-11"
     inkscape:window-maximized="1"
     inkscape:current-layer="svg4" />
  <path
     d="M2 20.889V16.444H4.222C4.54539 16.4439 4.86485 16.3732 5.15814 16.237C5.45143 16.1007 5.71147 15.9022 5.92015 15.6551C6.12883 15.4081 6.28112 15.1185 6.36641 14.8066C6.45171 14.4946 6.46795 14.1679 6.414 13.849C6.307 13.318 6.01644 12.8417 5.5933 12.5036C5.17017 12.1655 4.64148 11.9872 4.1 12H2V7.556C1.99987 7.41002 2.02851 7.26544 2.08428 7.13053C2.14006 6.99562 2.22187 6.87303 2.32505 6.76976C2.42823 6.66648 2.55075 6.58456 2.68561 6.52866C2.82047 6.47277 2.96502 6.444 3.111 6.444H7.556V4.222C7.556 3.89811 7.62674 3.57814 7.76327 3.28444C7.89981 2.99074 8.09885 2.7304 8.34647 2.52164C8.5941 2.31287 8.88433 2.16071 9.19689 2.07579C9.50944 1.99087 9.83677 1.97524 10.156 2.03C10.6855 2.13794 11.1603 2.4285 11.4973 2.85091C11.8344 3.27332 12.0123 3.80074 12 4.341V6.441H16.444C16.7389 6.441 17.0218 6.55816 17.2303 6.7667C17.4388 6.97524 17.556 7.25808 17.556 7.553V12H19.656C20.197 11.9879 20.7249 12.1665 21.1474 12.5046C21.57 12.8426 21.8601 13.3186 21.967 13.849C22.0209 14.1679 22.0047 14.4946 21.9194 14.8066C21.8341 15.1185 21.6818 15.4081 21.4731 15.6551C21.2645 15.9022 21.0044 16.1007 20.7111 16.237C20.4178 16.3732 20.0984 16.4439 19.775 16.444H17.556V20.889C17.556 21.035 17.5272 21.1795 17.4713 21.3144C17.4154 21.4492 17.3335 21.5718 17.2302 21.6749C17.127 21.7781 17.0044 21.8599 16.8695 21.9157C16.7346 21.9715 16.59 22.0001 16.444 22H13.111V19.778C13.111 19.4541 13.0403 19.1341 12.9037 18.8404C12.7672 18.5467 12.5681 18.2864 12.3205 18.0776C12.0729 17.8689 11.7827 17.7167 11.4701 17.6318C11.1576 17.5469 10.8302 17.5312 10.511 17.586C9.98096 17.694 9.50581 17.985 9.1687 18.4081C8.83158 18.8311 8.65399 19.3592 8.667 19.9V22H3.111C2.96506 22.0001 2.82054 21.9715 2.68568 21.9157C2.55083 21.8599 2.4283 21.7781 2.32511 21.6749C2.22192 21.5717 2.14009 21.4492 2.0843 21.3143C2.02852 21.1795 1.99987 21.0349 2 20.889Z"
     fill="#2E3A44"
     id="path2"
     style="fill:#A0AABF" />
</svg>
