<svg width="24" height="24" viewBox="0 0 24 24" fill="none" xmlns="http://www.w3.org/2000/svg">
<path opacity="0.4" d="M1.99988 7.91588V16.0839C1.99988 19.6229 4.27588 21.9999 7.66488 21.9999H16.3349C19.7239 21.9999 21.9999 19.6229 21.9999 16.0839V7.91588C21.9999 4.37788 19.7229 1.99988 16.3339 1.99988H7.66488C4.27588 1.99988 1.99988 4.37788 1.99988 7.91588" fill="#130F26"/>
<path d="M7.72057 12.8553L11.4686 16.6203C11.7506 16.9033 12.2496 16.9033 12.5326 16.6203L16.2806 12.8553C16.5726 12.5613 16.5716 12.0863 16.2776 11.7943C15.9836 11.5023 15.5096 11.5023 15.2166 11.7963L12.7496 14.2733V7.91833C12.7496 7.50333 12.4136 7.16833 11.9996 7.16833C11.5856 7.16833 11.2496 7.50333 11.2496 7.91833V14.2733L8.78357 11.7963C8.63657 11.6493 8.44457 11.5763 8.25157 11.5763C8.06057 11.5763 7.86857 11.6493 7.72257 11.7943C7.42957 12.0863 7.42857 12.5613 7.72057 12.8553" fill="#130F26"/>
</svg>
