<svg width="24" height="24" viewBox="0 0 24 24" fill="none" xmlns="http://www.w3.org/2000/svg">
<path opacity="0.4" d="M16.0841 1.99988L7.91612 1.99988C4.37712 1.99988 2.00012 4.27588 2.00012 7.66488L2.00012 16.3349C2.00012 19.7239 4.37712 21.9999 7.91612 21.9999L16.0841 21.9999C19.6221 21.9999 22.0001 19.7229 22.0001 16.3339L22.0001 7.66488C22.0001 4.27588 19.6221 1.99988 16.0841 1.99988" fill="#130F26"/>
<path d="M11.1447 7.72057L7.37967 11.4686C7.09667 11.7506 7.09667 12.2496 7.37967 12.5326L11.1447 16.2806C11.4387 16.5726 11.9137 16.5716 12.2057 16.2776C12.4977 15.9836 12.4977 15.5096 12.2037 15.2166L9.72667 12.7496H16.0817C16.4967 12.7496 16.8317 12.4136 16.8317 11.9996C16.8317 11.5856 16.4967 11.2496 16.0817 11.2496L9.72667 11.2496L12.2037 8.78357C12.3507 8.63657 12.4237 8.44457 12.4237 8.25157C12.4237 8.06057 12.3507 7.86857 12.2057 7.72257C11.9137 7.42957 11.4387 7.42857 11.1447 7.72057" fill="#130F26"/>
</svg>
