<svg width="24" height="24" viewBox="0 0 24 24" fill="none" xmlns="http://www.w3.org/2000/svg">
<path opacity="0.4" d="M7.91588 22.0001H16.0839C19.6229 22.0001 21.9999 19.7241 21.9999 16.3351V7.66512C21.9999 4.27612 19.6229 2.00012 16.0839 2.00012H7.91588C4.37788 2.00012 1.99988 4.27712 1.99988 7.66612L1.99988 16.3351C1.99988 19.7241 4.37788 22.0001 7.91588 22.0001" fill="#130F26"/>
<path d="M12.8553 16.2794L16.6203 12.5314C16.9033 12.2494 16.9033 11.7504 16.6203 11.4674L12.8553 7.71943C12.5613 7.42743 12.0863 7.42843 11.7943 7.72243C11.5023 8.01643 11.5023 8.49043 11.7963 8.78343L14.2733 11.2504H7.91833C7.50333 11.2504 7.16833 11.5864 7.16833 12.0004C7.16833 12.4144 7.50333 12.7504 7.91833 12.7504H14.2733L11.7963 15.2164C11.6493 15.3634 11.5763 15.5554 11.5763 15.7484C11.5763 15.9394 11.6493 16.1314 11.7943 16.2774C12.0863 16.5704 12.5613 16.5714 12.8553 16.2794" fill="#130F26"/>
</svg>
