<svg width="24" height="24" viewBox="0 0 24 24" fill="none" xmlns="http://www.w3.org/2000/svg">
<path opacity="0.4" d="M11.9991 21.9981C11.2301 21.9981 10.4621 21.7061 9.87508 21.1231L9.14508 20.3931C8.86208 20.1111 8.48308 19.9551 8.08108 19.9541H7.05408C5.39408 19.9541 4.04308 18.6031 4.04308 16.9431V15.9151C4.04208 15.5141 3.88608 15.1351 3.60308 14.8501L2.88508 14.1331C1.70908 12.9641 1.70408 11.0531 2.87408 9.87615L3.60408 9.14515C3.88608 8.86215 4.04208 8.48315 4.04308 8.08115V7.05515C4.04308 5.39415 5.39408 4.04315 7.05408 4.04315H8.08208C8.48308 4.04315 8.86108 3.88715 9.14608 3.60215L9.86508 2.88515C11.0341 1.70915 12.9441 1.70315 14.1221 2.87415L14.8521 3.60415C15.1361 3.88715 15.5141 4.04315 15.9151 4.04315H16.9431C18.6031 4.04315 19.9541 5.39415 19.9541 7.05515V8.08215C19.9551 8.48315 20.1111 8.86215 20.3941 9.14715L21.1121 9.86515C21.6811 10.4311 21.9961 11.1851 21.9991 11.9901C22.0011 12.7901 21.6931 13.5431 21.1321 14.1121C21.1221 14.1221 21.1131 14.1331 21.1031 14.1421L20.3931 14.8521C20.1111 15.1351 19.9551 15.5141 19.9541 15.9161V16.9431C19.9541 18.6031 18.6031 19.9541 16.9431 19.9541H15.9151C15.5141 19.9551 15.1351 20.1111 14.8511 20.3941L14.1321 21.1121C13.5461 21.7021 12.7721 21.9981 11.9991 21.9981" fill="#130F26"/>
<path fill-rule="evenodd" clip-rule="evenodd" d="M10.0428 10.051C9.87782 10.216 9.66382 10.305 9.42682 10.305C9.20482 10.305 8.98682 10.214 8.81182 10.05C8.64582 9.88495 8.55182 9.65895 8.55182 9.42995C8.55182 9.21195 8.64382 8.98795 8.80582 8.81495C8.89482 8.72495 9.00082 8.65695 9.10682 8.62095C9.40882 8.48295 9.80982 8.56395 10.0478 8.81395C10.1328 8.89895 10.1978 8.99195 10.2408 9.08895C10.2878 9.19295 10.3118 9.31095 10.3118 9.42995C10.3118 9.66795 10.2168 9.88895 10.0428 10.051ZM15.1905 8.80985C14.8495 8.46985 14.2945 8.46985 13.9535 8.80985L8.81352 13.9499C8.47252 14.2909 8.47252 14.8459 8.81352 15.1879C8.97952 15.3529 9.19852 15.4439 9.43252 15.4439C9.66652 15.4439 9.88552 15.3529 10.0505 15.1879L15.1905 10.0479C15.5315 9.70585 15.5315 9.15185 15.1905 8.80985ZM14.9058 13.764C14.5818 13.628 14.1978 13.702 13.9418 13.958C13.8888 14.02 13.8138 14.116 13.7628 14.229C13.7088 14.351 13.7018 14.482 13.7018 14.57C13.7018 14.658 13.7088 14.788 13.7628 14.91C13.8128 15.022 13.8728 15.113 13.9518 15.192C14.1328 15.36 14.3428 15.445 14.5768 15.445C14.7988 15.445 15.0168 15.355 15.1958 15.188C15.3548 15.029 15.4418 14.809 15.4418 14.57C15.4418 14.33 15.3548 14.111 15.1948 13.951C15.1068 13.864 15.0008 13.796 14.9058 13.764Z" fill="#130F26"/>
</svg>
