<svg width="24" height="24" viewBox="0 0 24 24" fill="none" xmlns="http://www.w3.org/2000/svg">
<path opacity="0.4" d="M22.0002 11.9998C22.0002 17.5238 17.5232 21.9998 12.0002 21.9998C6.47718 21.9998 2.00018 17.5238 2.00018 11.9998C2.00018 6.47776 6.47718 1.99976 12.0002 1.99976C17.5232 1.99976 22.0002 6.47776 22.0002 11.9998" fill="#130F26"/>
<path fill-rule="evenodd" clip-rule="evenodd" d="M7.52106 10.8035C6.86006 10.8035 6.32306 11.3405 6.32306 11.9995C6.32306 12.6595 6.86006 13.1975 7.52106 13.1975C8.18206 13.1975 8.71906 12.6595 8.71906 11.9995C8.71906 11.3405 8.18206 10.8035 7.52106 10.8035ZM12.0002 10.8035C11.3392 10.8035 10.8022 11.3405 10.8022 11.9995C10.8022 12.6595 11.3392 13.1975 12.0002 13.1975C12.6612 13.1975 13.1982 12.6595 13.1982 11.9995C13.1982 11.3405 12.6612 10.8035 12.0002 10.8035ZM15.2816 11.9995C15.2816 11.3405 15.8186 10.8035 16.4796 10.8035C17.1406 10.8035 17.6776 11.3405 17.6776 11.9995C17.6776 12.6595 17.1406 13.1975 16.4796 13.1975C15.8186 13.1975 15.2816 12.6595 15.2816 11.9995Z" fill="#130F26"/>
</svg>
