<svg width="24" height="24" viewBox="0 0 24 24" fill="none" xmlns="http://www.w3.org/2000/svg">
<path opacity="0.4" d="M16.3344 1.99976H7.66543C4.27643 1.99976 2.00043 4.37776 2.00043 7.91676V16.0838C2.00043 19.6218 4.27643 21.9998 7.66543 21.9998H16.3334C19.7224 21.9998 22.0004 19.6218 22.0004 16.0838V7.91676C22.0004 4.37776 19.7234 1.99976 16.3344 1.99976" fill="#130F26"/>
<path fill-rule="evenodd" clip-rule="evenodd" d="M11.3143 11.2484H17.0143C17.4243 11.2484 17.7643 11.5884 17.7643 11.9984V13.8484C17.7643 14.2684 17.4243 14.5984 17.0143 14.5984C16.5943 14.5984 16.2643 14.2684 16.2643 13.8484V12.7484H14.9343V13.8484C14.9343 14.2684 14.5943 14.5984 14.1843 14.5984C13.7643 14.5984 13.4343 14.2684 13.4343 13.8484V12.7484H11.3143C10.9943 13.8184 10.0143 14.5984 8.84425 14.5984C7.40425 14.5984 6.23425 13.4384 6.23425 11.9984C6.23425 10.5684 7.40425 9.39844 8.84425 9.39844C10.0143 9.39844 10.9943 10.1784 11.3143 11.2484ZM7.73425 11.9984C7.73425 12.6084 8.23425 13.0984 8.84425 13.0984C9.44425 13.0984 9.94425 12.6084 9.94425 11.9984C9.94425 11.3884 9.44425 10.8984 8.84425 10.8984C8.23425 10.8984 7.73425 11.3884 7.73425 11.9984Z" fill="#130F26"/>
</svg>
